<?xml version="1.0" encoding="utf-8"?>
<!-- Generator: Adobe Illustrator 19.1.0, SVG Export Plug-In . SVG Version: 6.00 Build 0)  -->
<svg version="1.1" id="Capa_1" xmlns="http://www.w3.org/2000/svg" xmlns:xlink="http://www.w3.org/1999/xlink" x="0px" y="0px"
	 viewBox="0 0 200 200" style="enable-background:new 0 0 200 200;" xml:space="preserve">
<style type="text/css">
	.st0{fill:#C6C6C6;}
	.st1{fill-rule:evenodd;clip-rule:evenodd;fill:#E2E2E2;}
	.st2{clip-path:url(#SVGID_2_);}
	.st3{clip-path:url(#SVGID_4_);fill:#C6C6C6;}
	.st4{fill:#FDFDFD;}
	.st5{fill:#FCFCFC;}
	.st6{fill:#E2E2E2;}
	.st7{fill:#FFFFFF;}
	.st8{fill:#EBEBEB;}
	.st9{fill:url(#SVGID_5_);}
</style>
<circle class="st0" cx="100" cy="100" r="46.7"/>
<g>
	<g>
		<path class="st7" d="M102,130.3c-1.4,0-2.9-0.1-4.3-0.4l0.5-3c1.2,0.2,2.5,0.3,3.8,0.3c12,0,21.8-9.8,21.8-21.8S114,83.7,102,83.7
			s-21.8,9.8-21.8,21.8c0,6.2,2.7,12.2,7.4,16.3l-2,2.2c-5.3-4.7-8.4-11.5-8.4-18.6c0-13.7,11.1-24.8,24.8-24.8s24.8,11.1,24.8,24.8
			S115.7,130.3,102,130.3z"/>
		<g>
			<polygon class="st7" points="85,115.2 85.9,122.4 78.7,123.2 82.1,125.9 89.2,125 88.4,117.9 			"/>
		</g>
	</g>
	<g>
		<path class="st7" d="M89.6,86.2c0.4-0.4,0.8-0.8,1.1-1.3l-1-0.7c-0.3,0.4-0.6,0.8-1,1.1c-3.3,3.3-8.7,3.3-12,0
			c-3.3-3.3-3.3-8.7,0-12s8.7-3.3,12,0c1.7,1.7,2.6,4.1,2.4,6.5l1.2,0.1c0.2-2.8-0.8-5.5-2.8-7.4c-3.8-3.8-9.9-3.8-13.7-0.1
			s-3.8,9.9-0.1,13.7S85.9,89.9,89.6,86.2z"/>
		<g>
			<polygon class="st7" points="90.2,77.4 91.9,79.6 94.1,77.8 93.9,79.5 91.7,81.2 90,79 			"/>
		</g>
	</g>
</g>
</svg>
