<?xml version="1.0" encoding="utf-8"?>
<!-- Generator: Adobe Illustrator 19.1.0, SVG Export Plug-In . SVG Version: 6.00 Build 0)  -->
<svg version="1.1" id="Capa_1" xmlns="http://www.w3.org/2000/svg" xmlns:xlink="http://www.w3.org/1999/xlink" x="0px" y="0px"
	 viewBox="0 0 200 200" style="enable-background:new 0 0 200 200;" xml:space="preserve">
<style type="text/css">
	.st0{fill:#C6C6C6;}
	.st1{fill-rule:evenodd;clip-rule:evenodd;fill:#E2E2E2;}
	.st2{clip-path:url(#SVGID_2_);}
	.st3{clip-path:url(#SVGID_4_);fill:#C6C6C6;}
	.st4{fill:#FDFDFD;}
	.st5{fill:#FCFCFC;}
	.st6{fill:#E2E2E2;}
	.st7{fill:#FFFFFF;}
	.st8{fill:#EBEBEB;}
	.st9{fill:url(#SVGID_5_);}
	.st10{fill-rule:evenodd;clip-rule:evenodd;fill:#C6C6C6;}
	.st11{fill:none;stroke:#C6C6C6;stroke-width:5;stroke-miterlimit:10;}
</style>
<g>
	<polygon class="st6" points="100,43.8 100,43.8 100,43.8 47.7,62.5 55.7,131.6 100,156.2 100,156.2 100,156.2 144.3,131.6 
		152.3,62.5 	"/>
	<polygon class="st0" points="100,43.8 100,56.3 100,56.2 100,113.2 100,113.2 100,156.2 100,156.2 144.3,131.6 152.3,62.5 	"/>
	<path class="st7" d="M100,56.2l-32.7,73.3l0,0h12.2l0,0l6.6-16.4h27.8l6.6,16.4l0,0h12.2l0,0L100,56.2L100,56.2L100,56.2L100,56.2
		L100,56.2z M109.6,103H90.4l9.6-23L109.6,103z"/>
</g>
</svg>
