<?xml version="1.0" encoding="utf-8"?>
<!-- Generator: Adobe Illustrator 19.1.0, SVG Export Plug-In . SVG Version: 6.00 Build 0)  -->
<svg version="1.1" id="Capa_1" xmlns="http://www.w3.org/2000/svg" xmlns:xlink="http://www.w3.org/1999/xlink" x="0px" y="0px"
	 viewBox="0 0 200 200" style="enable-background:new 0 0 200 200;" xml:space="preserve">
<style type="text/css">
	.st0{fill:#C6C6C6;}
	.st1{fill-rule:evenodd;clip-rule:evenodd;fill:#E2E2E2;}
	.st2{clip-path:url(#SVGID_2_);}
	.st3{clip-path:url(#SVGID_4_);fill:#C6C6C6;}
	.st4{fill:#FDFDFD;}
	.st5{fill:#FCFCFC;}
	.st6{fill:#E2E2E2;}
	.st7{fill:#FFFFFF;}
	.st8{fill:#EBEBEB;}
	.st9{fill:url(#SVGID_5_);}
</style>
<g>
	<linearGradient id="SVGID_2_" gradientUnits="userSpaceOnUse" x1="63.2129" y1="127.624" x2="131.6796" y2="74.6984">
		<stop  offset="0" style="stop-color:#E2E2E2"/>
		<stop  offset="1" style="stop-color:#C6C6C6"/>
	</linearGradient>
	<path style="fill:url(#SVGID_2_);" d="M139.9,128c0,5.9-4.8,10.7-10.7,10.7h-58c-5.9,0-10.7-4.8-10.7-10.7V70
		c0-5.9,4.8-10.7,10.7-10.7h58c5.9,0,10.7,4.8,10.7,10.7V128z"/>
	<g>
		<path class="st7" d="M79.6,74.2h23.2c13.1,0,15.9,9.3,15.9,13c0,7.4-4.2,9.3-6.3,10.2c3.2,0.9,8.4,3.6,8.4,13.1
			c0,2.7-0.3,13.4-17.4,13.4H79.6V74.2z M92.5,93.6h7c5.2,0,5.7-3.4,5.7-5.1c0-1.5-0.9-4.8-5.7-4.8h-7.1V93.6z M92.5,115.2h8.1
			c6.7,0,7.1-4.7,7.1-6.4c0-1.5-0.6-6.3-7.1-6.3h-8.1V115.2z"/>
	</g>
</g>
</svg>
