<?xml version="1.0" encoding="utf-8"?>
<!-- Generator: Adobe Illustrator 19.1.0, SVG Export Plug-In . SVG Version: 6.00 Build 0)  -->
<svg version="1.1" id="Capa_1" xmlns="http://www.w3.org/2000/svg" xmlns:xlink="http://www.w3.org/1999/xlink" x="0px" y="0px"
	 viewBox="0 0 200 200" style="enable-background:new 0 0 200 200;" xml:space="preserve">
<style type="text/css">
	.st0{fill:#C6C6C6;}
	.st1{fill-rule:evenodd;clip-rule:evenodd;fill:#E2E2E2;}
	.st2{clip-path:url(#SVGID_2_);}
	.st3{clip-path:url(#SVGID_4_);fill:#C6C6C6;}
	.st4{fill:#FDFDFD;}
	.st5{fill:#FCFCFC;}
	.st6{fill:#E2E2E2;}
	.st7{fill:#FFFFFF;}
	.st8{fill:#EBEBEB;}
	.st9{fill:url(#SVGID_5_);}
</style>
<g>
	<g>
		<g>
			<g>
				<g>
					<circle class="st0" cx="100" cy="100" r="50"/>
				</g>
			</g>
		</g>
	</g>
	<g id="WvKSMg.tif">
		<g>
			<path class="st7" d="M73.4,111.2L73.4,111.2c0.1-5.1,1.1-9.6,3.7-13.7c4.3-7,10.2-12.3,18-15.1c6.8-2.5,13.5-2.1,20.1,0.7
				c1.3,0.6,2.1,0.3,3-0.6c1.5-1.6,2.7-3.4,3.4-5.5c0.1-0.4,0.3-0.9,0.6-1.2c0.2-0.2,0.7-0.4,0.9-0.3c1.8,0.8,2.2,2.6,1,4.2
				c-1.3,1.6-2.6,3.2-3.9,4.8c-0.9,1.1-1,2-0.5,3.4c2.9,7.4,1,13.9-4.3,19.5c-4.5,4.8-10.3,7.5-16.6,9c-3.3,0.8-6.7,0.9-10,1.6
				c-1.8,0.3-3.5,1-5.2,1.8c-1.9,0.8-3.2,2.3-4,4.2c-0.3,0.6-0.7,1.7-1.2,2.2c-0.2,0.3-0.6,0.3-0.8,0c-0.4-0.5-0.9-1.5-1.2-2.1
				C74.2,120,73.5,115.5,73.4,111.2z"/>
		</g>
	</g>
</g>
</svg>
