<?xml version="1.0" encoding="utf-8"?>
<!-- Generator: Adobe Illustrator 19.1.0, SVG Export Plug-In . SVG Version: 6.00 Build 0)  -->
<svg version="1.1" id="Capa_1" xmlns="http://www.w3.org/2000/svg" xmlns:xlink="http://www.w3.org/1999/xlink" x="0px" y="0px"
	 viewBox="0 0 200 200" style="enable-background:new 0 0 200 200;" xml:space="preserve">
<style type="text/css">
	.st0{fill:#C6C6C6;}
	.st1{fill-rule:evenodd;clip-rule:evenodd;fill:#E2E2E2;}
	.st2{clip-path:url(#SVGID_2_);}
	.st3{clip-path:url(#SVGID_4_);fill:#C6C6C6;}
	.st4{fill:#FDFDFD;}
	.st5{fill:#FCFCFC;}
	.st6{fill:#E2E2E2;}
	.st7{fill:#FFFFFF;}
	.st8{fill:#EBEBEB;}
	.st9{fill:url(#SVGID_5_);}
	.st10{fill-rule:evenodd;clip-rule:evenodd;fill:#C6C6C6;}
	.st11{fill:none;stroke:#C6C6C6;stroke-width:5;stroke-miterlimit:10;}
</style>
<g>
	<path class="st11" d="M87.4,150h45.1c0,0,0-16.7-2.4-23.9c-2.1-6.2-16.5-10-32.2-15.9V98.3c0,0,7-4.1,7-16c3.9,0,3.9-10,0-10
		c0-1.2,4.2-8.4,2.5-15c-2.4-9.6-30.2-9.6-32.6,0c-11.9-2.4-5,13.4-5,15c-3.9,0-3.9,10,0,10c0,11.9,8.2,16,8.2,16v11.9
		c-13.9,5.3-31.4,9.6-33.4,15.9c-2.4,7.2-2.4,23.9-2.4,23.9H87.4z"/>
	<path class="st11" d="M147.6,150h10c0,0,0-16.7-2.4-23.9c-2.1-6.2-17.7-12-33.4-17.9v-8c0,0,8.2-3.5,8.2-15.5c3.9,0,3.9-10,0-10
		c0-1.2,4.2-9.3,2.5-16c-1.1-4.5-10-11.6-17.5-6.6"/>
</g>
</svg>
