<?xml version="1.0" encoding="utf-8"?>
<!-- Generator: Adobe Illustrator 19.1.0, SVG Export Plug-In . SVG Version: 6.00 Build 0)  -->
<svg version="1.1" id="Capa_1" xmlns="http://www.w3.org/2000/svg" xmlns:xlink="http://www.w3.org/1999/xlink" x="0px" y="0px"
	 viewBox="0 0 200 200" style="enable-background:new 0 0 200 200;" xml:space="preserve">
<style type="text/css">
	.st0{fill:#C6C6C6;}
	.st1{fill-rule:evenodd;clip-rule:evenodd;fill:#E2E2E2;}
	.st2{clip-path:url(#SVGID_2_);}
	.st3{clip-path:url(#SVGID_4_);fill:#C6C6C6;}
	.st4{fill:#FDFDFD;}
	.st5{fill:#FCFCFC;}
	.st6{fill:#E2E2E2;}
	.st7{fill:#FFFFFF;}
	.st8{fill:#EBEBEB;}
	.st9{fill:url(#SVGID_5_);}
</style>
<g id="Page_1">
	<g id="Layer_1">
		<path id="Shape" class="st0" d="M122.2,50.1h-6.4l6.6,7.2v3.4h-13.7v-4h6.6l-6.6-7.2v-3.4h13.4V50.1L122.2,50.1z M106,50.1h-6.4
			l6.6,7.2v3.4H92.6v-4h6.6l-6.6-7.2v-3.4H106V50.1L106,50.1z M90.1,50.3h-6.9v6.3h6.9v4.2H78.3V46.1h11.8V50.3L90.1,50.3z"/>
		<path id="Shape_1_" class="st0" d="M68.9,145.9l-7-78.5h76.9l-7,78.5l-31.5,8.7L68.9,145.9z"/>
		<path id="Shape_2_" class="st6" d="M100.3,148l25.4-7.1l6-67.1h-31.4V148z"/>
		<g id="Group" transform="translate(55.000000, 142.000000)">
			<path id="Shape_3_" class="st7" d="M45.3-39.7h12.7l0.9-9.9H45.3v-9.6h0h24.1l-0.2,2.6l-2.4,26.5H45.3V-39.7z"/>
			<path id="Shape_4_" class="st8" d="M45.4-14.7L45.4-14.7l-10.8-2.9L34-25.2h-5.2h-4.5l1.3,15.1l19.7,5.5l0,0V-14.7z"/>
			<path id="Shape_5_" class="st7" d="M57.3-30.5l-1.2,12.9l-10.7,2.9v10l19.7-5.5l0.1-1.6l1.7-18.7H57.3z"/>
			<path id="Shape_6_" class="st8" d="M45.4-59.2v6v3.6v0H22.2h0l-0.2-2.2l-0.4-4.9l-0.2-2.6H45.4z"/>
			<path id="Shape_7_" class="st8" d="M45.3-39.7v6v3.6v0H34.8h0l-0.2-2.2l-0.4-4.9l-0.2-2.6H45.3z"/>
		</g>
	</g>
</g>
</svg>
