<?xml version="1.0" encoding="utf-8"?>
<!-- Generator: Adobe Illustrator 19.1.0, SVG Export Plug-In . SVG Version: 6.00 Build 0)  -->
<svg version="1.1" id="Capa_1" xmlns="http://www.w3.org/2000/svg" xmlns:xlink="http://www.w3.org/1999/xlink" x="0px" y="0px"
	 viewBox="0 0 200 200" style="enable-background:new 0 0 200 200;" xml:space="preserve">
<style type="text/css">
	.st0{fill:#C6C6C6;}
	.st1{fill-rule:evenodd;clip-rule:evenodd;fill:#E2E2E2;}
	.st2{clip-path:url(#SVGID_2_);}
	.st3{clip-path:url(#SVGID_4_);fill:#C6C6C6;}
	.st4{fill:#FDFDFD;}
	.st5{fill:#FCFCFC;}
	.st6{fill:#E2E2E2;}
	.st7{fill:#FFFFFF;}
	.st8{fill:#EBEBEB;}
	.st9{fill:url(#SVGID_5_);}
	.st10{fill-rule:evenodd;clip-rule:evenodd;fill:#C6C6C6;}
	.st11{fill:none;stroke:#C6C6C6;stroke-width:5;stroke-miterlimit:10;}
</style>
<g>
	<path class="st0" d="M68,155c-8.6,0-16.7-3.4-23.3-10l-3.7-3.7l5.2,0.3c10.9,0.6,13-6.1,15.2-13.1c1-3.1,1.9-6,3.6-8.3
		c6.1-8.2,18.9-10.2,26.9-4.2c5.9,4.4,8.5,10.3,7.5,16.6c-1.5,8.9-9.9,17.2-20.9,20.7C75,154.5,71.5,155,68,155z M51.2,145.3
		c7.6,5.6,16.9,7.1,26.1,4.2c9.5-3,16.9-10.3,18.1-17.6c0.8-4.8-1.2-9.3-5.9-12.7c-6.3-4.7-16.5-3.1-21.3,3.4
		c-1.3,1.7-2.1,4.3-3,7.1C63.3,135.7,60.8,143.7,51.2,145.3z"/>
	<rect x="92.1" y="109.6" transform="matrix(0.7071 0.7071 -0.7071 0.7071 107.53 -36.4052)" class="st0" width="11.2" height="4"/>
	<path class="st0" d="M96.8,123.8l-2.9-2.7l58-61.8c0-6.8-0.4-10-10-10.2L89,117l-3.2-2.5L139.9,45h1c15,0,15,7.6,15,15v0.8
		L96.8,123.8z"/>
</g>
</svg>
