<?xml version="1.0" encoding="utf-8"?>
<!-- Generator: Adobe Illustrator 19.1.0, SVG Export Plug-In . SVG Version: 6.00 Build 0)  -->
<svg version="1.1" id="Capa_1" xmlns="http://www.w3.org/2000/svg" xmlns:xlink="http://www.w3.org/1999/xlink" x="0px" y="0px"
	 viewBox="0 0 200 200" style="enable-background:new 0 0 200 200;" xml:space="preserve">
<style type="text/css">
	.st0{fill:#C6C6C6;}
	.st1{fill-rule:evenodd;clip-rule:evenodd;fill:#E2E2E2;}
	.st2{clip-path:url(#SVGID_2_);}
	.st3{clip-path:url(#SVGID_4_);fill:#C6C6C6;}
	.st4{fill:#FDFDFD;}
	.st5{fill:#FCFCFC;}
	.st6{fill:#E2E2E2;}
	.st7{fill:#FFFFFF;}
	.st8{fill:#EBEBEB;}
	.st9{fill:url(#SVGID_5_);}
</style>
<path class="st0" d="M154.8,94.9l-49.7-49.7c-2.9-2.9-7.5-2.9-10.4,0L84.4,55.5l13.1,13.1c3-1,6.5-0.3,9,2.1c2.4,2.4,3.1,6,2.1,9
	l12.6,12.6c3.1-1.1,6.6-0.4,9,2.1c3.4,3.4,3.4,8.9,0,12.3c-3.4,3.4-8.9,3.4-12.3,0c-2.6-2.6-3.2-6.3-1.9-9.5l-11.8-11.8l0,31
	c0.8,0.4,1.6,1,2.3,1.7c3.4,3.4,3.4,8.9,0,12.3c-3.4,3.4-8.9,3.4-12.3,0c-3.4-3.4-3.4-8.9,0-12.3c0.8-0.8,1.8-1.5,2.9-1.9V85
	c-1-0.4-2-1.1-2.9-1.9c-2.6-2.6-3.2-6.4-1.9-9.5L79.3,60.6L45.2,94.7c-2.9,2.9-2.9,7.5,0,10.4l49.7,49.7c2.9,2.9,7.5,2.9,10.4,0
	l49.5-49.5C157.7,102.4,157.7,97.8,154.8,94.9"/>
</svg>
