<?xml version="1.0" encoding="utf-8"?>
<!-- Generator: Adobe Illustrator 19.1.0, SVG Export Plug-In . SVG Version: 6.00 Build 0)  -->
<svg version="1.1" id="Capa_1" xmlns="http://www.w3.org/2000/svg" xmlns:xlink="http://www.w3.org/1999/xlink" x="0px" y="0px"
	 viewBox="0 0 200 200" style="enable-background:new 0 0 200 200;" xml:space="preserve">
<style type="text/css">
	.st0{fill:#C6C6C6;}
	.st1{fill-rule:evenodd;clip-rule:evenodd;fill:#E2E2E2;}
	.st2{clip-path:url(#SVGID_2_);}
	.st3{clip-path:url(#SVGID_4_);fill:#C6C6C6;}
	.st4{fill:#FDFDFD;}
	.st5{fill:#FCFCFC;}
	.st6{fill:#E2E2E2;}
	.st7{fill:#FFFFFF;}
	.st8{fill:#EBEBEB;}
	.st9{fill:url(#SVGID_5_);}
</style>
<g>
	<path class="st0" d="M124.4,67.4c-6.5,0.9-15.2,1.4-24.4,1.4c-9.2,0-17.8-0.5-24.4-1.4c-3.2-0.5-5.8-1-7.6-1.6
		c-0.4-0.1-1.2-0.4-1.9-0.8l4,37.2c0.2-0.6,0.4-1.3,0.6-1.9c0.5-1.3,1-2.6,1.6-3.8c0.6-1.2,1.3-2.4,2-3.5c0.7-1.1,1.5-2.1,2.3-3.1
		c0.8-0.9,1.7-1.7,2.5-2.4c0.9-0.7,1.7-1.2,2.6-1.6c0.9-0.4,1.8-0.6,2.6-0.6c1,0,2,0.3,2.9,0.8c0.9,0.5,1.8,1.4,2.6,2.7
		c0.2,0.3,0.3,0.6,0.4,0.8c0,0.3,0.1,0.5,0.1,0.8c0,0.6-0.1,1.1-0.4,1.4c-0.3,0.3-0.6,0.5-1,0.5c-0.4,0-0.7-0.2-1-0.6
		c-0.3-0.4-0.6-0.9-1-1.6c-0.4-0.6-0.7-1.1-1.2-1.4c-0.4-0.3-0.9-0.4-1.4-0.4c-0.8,0-1.6,0.3-2.5,1c-0.9,0.6-1.7,1.5-2.6,2.5
		c-0.9,1.1-1.7,2.3-2.5,3.6c-0.8,1.4-1.5,2.7-2.1,4.1c-0.6,1.4-1.1,2.8-1.4,4.2c-0.4,1.4-0.5,2.6-0.5,3.7c0,0.4,0,0.7,0.1,1.1
		c0,0.4,0.1,0.7,0.3,1c0.1,0.3,0.3,0.6,0.6,0.8c0.2,0.2,0.5,0.3,0.9,0.3c0.4,0,0.9-0.1,1.4-0.4c0.5-0.3,1.1-0.6,1.6-1.1
		c0.6-0.4,1.1-0.9,1.7-1.5c0.6-0.6,1.1-1.1,1.6-1.7c0.5-0.6,0.9-1.1,1.3-1.7c0.4-0.5,0.7-1,0.8-1.4l1.5-4.6c0.2-0.5,0.4-0.8,0.7-1.1
		c0.3-0.2,0.6-0.3,0.9-0.3c0.2,0,0.3,0,0.5,0.1c0.2,0.1,0.3,0.1,0.4,0.2c0.1,0.1,0.2,0.3,0.3,0.4c0.1,0.2,0.1,0.4,0.1,0.6
		c0,0.6-0.1,1.2-0.2,1.8c-0.1,0.5-0.3,1.1-0.4,1.6c-0.2,0.5-0.4,1-0.6,1.6c-0.2,0.5-0.4,1.1-0.6,1.7c0,0.1-0.1,0.3-0.2,0.6
		c-0.1,0.3-0.3,0.8-0.4,1.3c-0.2,0.5-0.3,1.1-0.5,1.8c-0.2,0.6-0.4,1.3-0.6,2c-0.2,0.7-0.4,1.3-0.6,2c-0.2,0.6-0.4,1.2-0.5,1.8
		c-0.1,0.5-0.3,1-0.4,1.3c-0.1,0.4-0.2,0.6-0.2,0.6c-0.1,0.2-0.1,0.4-0.3,0.7c-0.1,0.3-0.3,0.5-0.4,0.7c-0.2,0.2-0.3,0.4-0.5,0.6
		c-0.2,0.1-0.4,0.2-0.6,0.2c-0.4,0-0.6-0.1-0.8-0.4c-0.2-0.2-0.2-0.7-0.2-1.3v-0.3c0-0.1,0-0.2,0-0.3c0-0.2,0.1-0.6,0.2-1.2
		c0.2-0.6,0.3-1.2,0.6-1.9c0.2-0.7,0.4-1.5,0.7-2.3c0.2-0.8,0.5-1.5,0.7-2.1c-0.6,0.7-1.2,1.3-1.9,1.9c-0.7,0.6-1.4,1.2-2.1,1.7
		c-0.7,0.5-1.4,0.9-2.2,1.3c-0.7,0.3-1.4,0.5-2.1,0.5c-0.8,0-1.4-0.2-2-0.5c-0.1-0.1-0.2-0.1-0.3-0.2l2.2,23.6
		c0.6,1.5,11.6,5.1,26.1,5.1c14.5,0,25.5-3.6,26.1-5.1l3.2-28c-0.3,0.2-0.5,0.5-0.8,0.7c-0.9,0.9-1.8,1.6-2.6,2.2
		c-0.8,0.6-1.6,1.1-2.4,1.4c-0.8,0.3-1.6,0.5-2.5,0.5c-0.8,0-1.5-0.2-1.9-0.5c-0.5-0.4-0.7-0.9-0.7-1.5v-0.1c0,0,0-0.1,0-0.2
		c0-0.4,0.2-0.8,0.5-1.4c0.3-0.5,0.7-1,1.1-1.6c0.4-0.5,0.9-1.1,1.3-1.7c0.5-0.6,0.9-1.1,1.3-1.6c0.4-0.5,0.7-1,1-1.4
		c0.3-0.4,0.4-0.8,0.4-1c0-0.2-0.1-0.3-0.2-0.4c-0.1-0.1-0.3-0.1-0.5-0.1c-0.4,0-0.9,0.1-1.4,0.3c-0.5,0.2-0.9,0.5-1.4,0.9
		c-0.5,0.4-0.9,0.8-1.3,1.3c-0.4,0.5-0.8,1-1.2,1.5c-0.4,0.5-0.7,1.1-1,1.6c-0.3,0.5-0.6,1-0.8,1.5c-0.1,0.1-0.2,0.3-0.3,0.6
		c-0.1,0.3-0.3,0.6-0.4,0.9c-0.1,0.3-0.3,0.7-0.5,1c-0.2,0.3-0.3,0.7-0.4,1c-0.1,0.3-0.3,0.6-0.4,0.8c-0.1,0.2-0.2,0.4-0.2,0.5
		c-0.1,0.1-0.1,0.3-0.3,0.7c-0.1,0.3-0.3,0.7-0.4,1.1c-0.2,0.4-0.3,0.9-0.5,1.4c-0.2,0.5-0.4,0.9-0.5,1.4c-0.2,0.4-0.3,0.8-0.4,1.1
		c-0.1,0.3-0.2,0.5-0.2,0.7c-0.1,0.3-0.2,0.7-0.4,1c-0.1,0.3-0.3,0.6-0.5,0.8c-0.2,0.2-0.4,0.4-0.7,0.5c-0.2,0.1-0.5,0.2-0.8,0.2
		c-0.4,0-0.7-0.1-1-0.3c-0.3-0.2-0.4-0.6-0.4-1.1c0-0.3,0-0.5,0.1-0.8c0.1-0.3,0.1-0.5,0.2-0.8c0.1-0.3,0.2-0.5,0.3-0.8
		c0.1-0.3,0.2-0.5,0.3-0.7c0.6-1.3,1.2-2.6,1.8-3.9c0.6-1.3,1.2-2.6,1.8-3.9c0.1-0.3,0.2-0.5,0.3-0.8c0,0-0.1,0.1-0.1,0.1
		c-0.7,0.7-1.4,1.3-2.1,1.8c-0.7,0.5-1.4,0.9-2.1,1.3c-0.7,0.3-1.4,0.5-2,0.5c-0.5,0-0.8-0.1-1.1-0.2c-0.3-0.1-0.5-0.3-0.7-0.6
		c-0.2-0.2-0.3-0.5-0.4-0.9c0-0.1,0-0.2-0.1-0.4c-0.2,0.2-0.4,0.3-0.6,0.4c-0.7,0.5-1.4,0.9-2,1.2c-0.7,0.3-1.3,0.4-1.8,0.4
		c-0.5,0-1-0.2-1.3-0.5c-0.3-0.4-0.5-1-0.5-1.8c0-0.6,0.1-1.3,0.3-2.1c-0.3,0.5-0.6,1-1.1,1.5c-0.4,0.5-0.9,1-1.5,1.4
		c-0.6,0.4-1.2,0.8-1.9,1c-0.7,0.3-1.4,0.4-2.2,0.4c-0.4,0-0.7,0-1-0.1c-0.3-0.1-0.6-0.2-0.9-0.5c-0.3-0.2-0.5-0.5-0.6-0.9
		c-0.2-0.4-0.2-0.8-0.2-1.4c0,0,0-0.2,0.1-0.6c0-0.4,0.2-1,0.4-1.8c0.2-0.8,0.6-1.9,1.1-3.2c0.5-1.3,1.2-2.9,2.1-4.8
		c0.2-0.5,0.5-0.9,0.8-1.1c0.3-0.2,0.6-0.3,1-0.3c0.2,0,0.3,0,0.5,0.1c0.2,0,0.3,0.1,0.5,0.2c0.1,0.1,0.3,0.2,0.3,0.4
		c0.1,0.1,0.1,0.3,0.1,0.5c0,0.1,0,0.3,0,0.4c-0.1,0.2-0.2,0.5-0.4,0.9c-0.2,0.4-0.4,0.8-0.6,1.2c-0.2,0.5-0.5,1-0.8,1.5
		c-0.3,0.5-0.5,1.1-0.8,1.7c-0.2,0.6-0.4,1.2-0.6,1.8c-0.2,0.6-0.3,1.2-0.3,1.7c0,0.2,0.1,0.4,0.2,0.6c0.1,0.2,0.3,0.3,0.5,0.3
		c0.7,0,1.4-0.2,2-0.7c0.6-0.5,1.2-1.1,1.8-1.8c0.6-0.7,1-1.4,1.5-2.3c0.4-0.8,0.8-1.5,1.1-2.2c0.2-0.4,0.4-0.9,0.6-1.4
		c0.2-0.5,0.3-1,0.5-1.4c0.2-0.4,0.4-0.8,0.6-1.1c0.2-0.3,0.5-0.4,0.9-0.4c0.4,0,0.7,0.2,0.9,0.5c0.2,0.3,0.3,0.7,0.3,1.1
		c0,0.2-0.1,0.6-0.2,1c-0.1,0.4-0.3,0.9-0.6,1.4c-0.2,0.5-0.5,1.1-0.7,1.7c-0.3,0.6-0.5,1.2-0.7,1.8c-0.2,0.6-0.4,1.2-0.6,1.8
		c-0.1,0.6-0.2,1.1-0.2,1.7c0,0.5,0.2,0.7,0.7,0.7c0.3,0,0.8-0.1,1.3-0.4c0.5-0.2,1-0.6,1.6-1c0.1-0.1,0.3-0.2,0.4-0.3
		c0.2-0.6,0.3-1.2,0.5-1.8c0.4-1,0.8-2,1.2-3c0.4-1,0.8-1.9,1.1-2.8l5-12.6c0.2-0.5,0.5-0.9,0.8-1.1c0.3-0.2,0.7-0.3,1-0.3
		c0.3,0,0.7,0.1,0.9,0.3c0.3,0.2,0.4,0.6,0.4,1.1c0,0.2,0,0.5-0.1,0.7c-0.1,0.3-0.2,0.5-0.4,0.8c-0.3,0.6-0.6,1.4-1,2.3
		c-0.4,0.9-0.8,1.9-1.2,2.9c-0.4,1-0.9,2.1-1.3,3.3c-0.5,1.1-0.9,2.2-1.3,3.3c-0.4,1.1-0.8,2.1-1.2,3c-0.4,1-0.7,1.8-1,2.5
		c-0.1,0.3-0.2,0.6-0.4,1c-0.1,0.4-0.2,0.8-0.2,1.1c0,0.2,0,0.4,0.1,0.5c0.1,0.1,0.2,0.2,0.4,0.2c0.2,0,0.5-0.1,0.9-0.2
		c0.3-0.2,0.7-0.4,1.1-0.6c0.4-0.3,0.8-0.6,1.3-0.9c0.4-0.3,0.9-0.7,1.3-1.1c0.4-0.4,0.8-0.7,1.2-1.1c0.4-0.4,0.7-0.7,1.1-1
		c0.1-0.1,0.2-0.1,0.3-0.2c0.2-0.6,0.4-1.1,0.5-1.6c0.1-0.2,0.2-0.6,0.4-1c0.2-0.4,0.3-0.9,0.5-1.3c0.2-0.4,0.4-0.8,0.7-1.1
		c0.2-0.3,0.5-0.5,0.8-0.5c0.4,0,0.8,0.1,1,0.3c0.2,0.2,0.3,0.5,0.3,0.9c0,0.1,0,0.2,0,0.4c0,0.2,0,0.3-0.1,0.5
		c0,0.2-0.1,0.4-0.1,0.5c0,0.2-0.1,0.3-0.1,0.4c0.4-0.4,0.8-0.9,1.3-1.3c0.5-0.4,1-0.8,1.5-1.2c0.5-0.4,1-0.6,1.6-0.9
		c0.5-0.2,1.1-0.3,1.6-0.3c0.4,0,0.7,0.1,1.1,0.2c0.4,0.1,0.7,0.3,1,0.5c0.3,0.2,0.5,0.5,0.7,0.8c0.2,0.3,0.3,0.7,0.3,1.1
		c0,0.5-0.1,1.1-0.4,1.7c-0.3,0.6-0.6,1.2-1,1.8c-0.4,0.6-0.8,1.2-1.3,1.8c-0.5,0.6-0.9,1.1-1.3,1.6c-0.4,0.5-0.8,0.9-1,1.2
		c-0.3,0.3-0.4,0.6-0.4,0.7c0,0.2,0,0.3,0.1,0.4c0.1,0.1,0.3,0.1,0.5,0.1c0.2,0,0.5-0.1,0.8-0.3c0.4-0.2,0.9-0.6,1.5-1.1
		c0.7-0.5,1.5-1.2,2.5-2.1c0.7-0.6,1.5-1.3,2.4-2.1l4.4-40.5c-0.7,0.4-1.4,0.6-1.9,0.8C130.1,66.4,127.6,66.9,124.4,67.4z"/>
	<path class="st0" d="M99.7,143.8c-8.9,0-15.7-1.3-19-2.1c-2.3-0.5-4.1-1.1-5.4-1.7l4.4,7.5l1.7,23.5c0,2.6,8.4,4.8,18.7,4.8
		c10.3,0,18.7-2.1,18.7-4.8l1.4-23.7l4.2-7.3c-1.4,0.6-3.2,1.2-5.5,1.7C115.4,142.5,108.6,143.8,99.7,143.8z"/>
	<path class="st0" d="M114.2,58.2l3-12.1l17-18c0,0,0,0,0,0c0.4-0.4-0.4-1.7-1.6-2.7c-1.2-1.1-2.5-1.4-2.9-1c0,0,0,0,0,0l-18.1,19.1
		l-3.7,14.4c-2.5-0.1-5.1-0.1-7.8-0.1c-18.9,0-34.2,2.1-34.2,4.7c0,2.6,15.3,4.7,34.2,4.7s34.2-2.1,34.2-4.7
		C134.2,60.6,126,58.9,114.2,58.2z M109.6,65c-2.2,0-4.1-0.5-4.1-1.1c0-0.3,0.3-0.5,0.9-0.7l-0.1,0.2c0,0,0,0.1,0,0.1
		c0,0.4,1.5,0.7,3.3,0.7c1.8,0,3.3-0.3,3.3-0.7l0.1-0.2c0.5,0.2,0.7,0.4,0.7,0.6C113.6,64.5,111.8,65,109.6,65z"/>
</g>
</svg>
