<?xml version="1.0" encoding="utf-8"?>
<!-- Generator: Adobe Illustrator 19.1.0, SVG Export Plug-In . SVG Version: 6.00 Build 0)  -->
<svg version="1.1" id="Capa_1" xmlns="http://www.w3.org/2000/svg" xmlns:xlink="http://www.w3.org/1999/xlink" x="0px" y="0px"
	 viewBox="0 0 200 200" style="enable-background:new 0 0 200 200;" xml:space="preserve">
<style type="text/css">
	.st0{fill:#C6C6C6;}
	.st1{fill-rule:evenodd;clip-rule:evenodd;fill:#E2E2E2;}
	.st2{clip-path:url(#SVGID_2_);}
	.st3{clip-path:url(#SVGID_4_);fill:#C6C6C6;}
	.st4{fill:#FDFDFD;}
	.st5{fill:#FCFCFC;}
	.st6{fill:#E2E2E2;}
	.st7{fill:#FFFFFF;}
	.st8{fill:#EBEBEB;}
	.st9{fill:url(#SVGID_5_);}
</style>
<g id="Page_1_1_">
	<g id="Group_1_">
		<path id="Shape_17_" class="st0" d="M68.7,145.6l-7-78.6h77l-7,78.6l-31.5,8.7L68.7,145.6z"/>
		<path id="Shape_16_" class="st6" d="M100.2,147.7l25.5-7.1l6-67.2h-31.5V147.7z"/>
		<path id="Shape_15_" class="st8" d="M100.2,102.6H87.4l-0.9-9.9h13.6v-9.6h0H76l0.2,2.6l2.4,26.6h21.6V102.6z"/>
		<path id="Shape_14_" class="st8" d="M100.2,127.6L100.2,127.6l-10.8-2.9l-0.7-7.7h-5.2h-4.5l1.4,15.1l19.7,5.5l0,0V127.6z"/>
		<path id="Shape_13_" class="st0" d="M68.9,45.7h4.9v4.8h4.5v-4.8h4.9v14.7h-4.9v-4.9h-4.5v4.9h-4.9V45.7L68.9,45.7z"/>
		<path id="Shape_12_" class="st0" d="M89.6,50.5h-4.3v-4.9h13.5v4.9h-4.3v9.8h-4.9L89.6,50.5L89.6,50.5L89.6,50.5z"/>
		<path id="Shape_11_" class="st0" d="M100.9,45.7h5.1l3.1,5.2l3.1-5.2h5.1v14.7h-4.9V53l-3.4,5.2h-0.1l-3.4-5.2v7.3h-4.8
			L100.9,45.7L100.9,45.7z"/>
		<path id="Shape_10_" class="st0" d="M119.9,45.7h4.9v9.8h6.9v4.8h-11.8L119.9,45.7L119.9,45.7z"/>
		<path id="Shape_8_" class="st7" d="M100.2,102.6v9.6H112l-1.1,12.5l-10.8,2.9v10l19.8-5.5l0.1-1.6l2.3-25.4l0.2-2.6H120H100.2z"/>
		<path id="Shape_9_" class="st7" d="M100.2,83.1v6v3.6v0h23.3h0l0.2-2.2l0.4-4.9l0.2-2.6H100.2z"/>
	</g>
</g>
</svg>
