<?xml version="1.0" encoding="utf-8"?>
<!-- Generator: Adobe Illustrator 19.1.0, SVG Export Plug-In . SVG Version: 6.00 Build 0)  -->
<svg version="1.1" id="Capa_1" xmlns="http://www.w3.org/2000/svg" xmlns:xlink="http://www.w3.org/1999/xlink" x="0px" y="0px"
	 viewBox="0 0 200 200" style="enable-background:new 0 0 200 200;" xml:space="preserve">
<style type="text/css">
	.st0{fill:#C6C6C6;}
	.st1{fill-rule:evenodd;clip-rule:evenodd;fill:#E2E2E2;}
	.st2{clip-path:url(#SVGID_2_);}
	.st3{clip-path:url(#SVGID_4_);fill:#C6C6C6;}
	.st4{fill:#FDFDFD;}
	.st5{fill:#FCFCFC;}
	.st6{fill:#E2E2E2;}
	.st7{fill:#FFFFFF;}
	.st8{fill:#EBEBEB;}
	.st9{fill:url(#SVGID_5_);}
	.st10{fill-rule:evenodd;clip-rule:evenodd;fill:#C6C6C6;}
	.st11{fill:none;stroke:#C6C6C6;stroke-width:5;stroke-miterlimit:10;}
</style>
<g>
	<g>
		<path class="st0" d="M92.3,87.1h-0.1c-0.6,2.5-1.2,5.6-1.9,8l-2.5,8.8H97l-2.6-8.8C93.7,92.7,92.9,89.6,92.3,87.1z"/>
		<path class="st0" d="M140.8,59.2H59.2v81.5h81.5V59.2z M101.6,121.6L98.4,111H86.5l-3,10.6h-9.7l12.7-41.5h12.3l12.9,41.5H101.6z
			 M125.9,121.6h-9.4V91.5h9.4V121.6z M121.2,87.8c-3,0-4.9-2.1-4.9-4.7c-0.1-2.7,1.9-4.7,4.9-4.7c3,0,4.9,2,5,4.7
			C126.2,85.7,124.2,87.8,121.2,87.8z"/>
	</g>
</g>
</svg>
