<?xml version="1.0" encoding="utf-8"?>
<!-- Generator: Adobe Illustrator 19.1.0, SVG Export Plug-In . SVG Version: 6.00 Build 0)  -->
<svg version="1.1" id="Capa_1" xmlns="http://www.w3.org/2000/svg" xmlns:xlink="http://www.w3.org/1999/xlink" x="0px" y="0px"
	 viewBox="0 0 200 200" style="enable-background:new 0 0 200 200;" xml:space="preserve">
<style type="text/css">
	.st0{fill:#C6C6C6;}
	.st1{fill-rule:evenodd;clip-rule:evenodd;fill:#E2E2E2;}
	.st2{clip-path:url(#SVGID_2_);}
	.st3{clip-path:url(#SVGID_4_);fill:#C6C6C6;}
	.st4{fill:#FDFDFD;}
	.st5{fill:#FCFCFC;}
	.st6{fill:#E2E2E2;}
	.st7{fill:#FFFFFF;}
	.st8{fill:#EBEBEB;}
	.st9{fill:url(#SVGID_5_);}
</style>
<g>
	<path class="st0" d="M134.7,57.7H65.3c-4.2,0-7.7,3.4-7.7,7.7v69.3c0,4.2,3.4,7.7,7.7,7.7h69.3c4.2,0,7.7-3.4,7.7-7.7V65.3
		C142.3,61.1,138.9,57.7,134.7,57.7"/>
	<path class="st7" d="M86,84.3c2.8,0,5.2-2.2,5.2-5.1c0-2.9-2.4-5.1-5.2-5.1c-2.8,0-5.2,2.2-5.2,5.1C80.8,82.1,83.1,84.3,86,84.3"/>
	<path class="st7" d="M75.2,111.6c-0.3,1.3-0.5,2.7-0.5,3.8c0,4.5,2.4,7.5,7.6,7.5c4.3,0,7.8-2.5,10.3-6.7l-1.5,6.1h8.5l4.9-19.5
		c1.2-4.9,3.6-7.5,7.1-7.5c2.8,0,4.6,1.8,4.6,4.6c0,0.8-0.1,1.7-0.4,2.7l-2.5,9c-0.4,1.3-0.5,2.6-0.5,3.8c0,4.3,2.5,7.4,7.8,7.4
		c4.5,0,8.1-2.9,10-9.8l-3.3-1.3c-1.7,4.6-3.1,5.5-4.3,5.5c-1.1,0-1.7-0.8-1.7-2.3c0-0.7,0.2-1.4,0.4-2.4l2.4-8.7
		c0.6-2.1,0.8-3.9,0.8-5.5c0-6.5-4-10-8.7-10c-4.5,0-9.1,4-11.3,8.3l1.7-7.6h-13l-1.8,6.7h6.1l-3.7,15c-2.9,6.5-8.3,6.6-9,6.5
		c-1.1-0.3-1.8-0.7-1.8-2.1c0-0.8,0.2-2,0.5-3.5L89.4,89H74.9l-1.8,6.7h6L75.2,111.6"/>
</g>
</svg>
