<?xml version="1.0" encoding="utf-8"?>
<!-- Generator: Adobe Illustrator 19.1.0, SVG Export Plug-In . SVG Version: 6.00 Build 0)  -->
<svg version="1.1" id="Capa_1" xmlns="http://www.w3.org/2000/svg" xmlns:xlink="http://www.w3.org/1999/xlink" x="0px" y="0px"
	 viewBox="0 0 200 200" style="enable-background:new 0 0 200 200;" xml:space="preserve">
<style type="text/css">
	.st0{fill:#C6C6C6;}
	.st1{fill-rule:evenodd;clip-rule:evenodd;fill:#E2E2E2;}
	.st2{clip-path:url(#SVGID_2_);}
	.st3{clip-path:url(#SVGID_4_);fill:#C6C6C6;}
	.st4{fill:#FDFDFD;}
	.st5{fill:#FCFCFC;}
	.st6{fill:#E2E2E2;}
	.st7{fill:#FFFFFF;}
	.st8{fill:#EBEBEB;}
	.st9{fill:url(#SVGID_5_);}
</style>
<path class="st0" d="M41,72.5c0.7,0,1.1,0.4,1.1,1.1v36c0,1.3-0.3,2.6-0.8,3.8c-0.5,1.2-1.2,2.2-2.1,3.1c-0.9,0.9-1.9,1.6-3.1,2.1
	c-1.2,0.5-2.4,0.8-3.8,0.8h-2.9c-1.3,0-2.6-0.3-3.8-0.8c-1.2-0.5-2.2-1.2-3.1-2.1c-0.9-0.9-1.6-1.9-2.1-3.1
	c-0.5-1.2-0.8-2.4-0.8-3.8v-8.3c0-0.7,0.3-1.2,1-1.4l7-1.8c0.7-0.2,1,0,1,0.8v10.3c0,0.5,0.2,0.9,0.5,1.3c0.4,0.4,0.8,0.5,1.3,0.5
	h0.6c0.5,0,0.9-0.2,1.3-0.5c0.4-0.4,0.5-0.8,0.5-1.3V73.6c0-0.7,0.4-1.1,1.1-1.1C34.1,72.5,41,72.5,41,72.5L41,72.5z M71,117.7
	c0.1,0.7-0.2,1.1-0.9,1.1h-7c-0.7,0-1-0.4-1.2-1.1l-0.6-7.5h-4.8l-0.6,7.5c-0.1,0.7-0.5,1.1-1.2,1.1h-7c-0.7,0-1-0.4-0.9-1.1
	l5.8-44.1c0.1-0.7,0.5-1.1,1.2-1.1H64c0.7,0,1.1,0.4,1.2,1.1L71,117.7z M60.7,101.5l-1.4-17h-0.6l-1.4,17H60.7L60.7,101.5z
	 M88.7,72.5c1.3,0,2.6,0.3,3.8,0.8c1.2,0.5,2.2,1.2,3.1,2.1c0.9,0.9,1.6,1.9,2.1,3.1c0.5,1.2,0.8,2.4,0.8,3.8V109
	c0,1.3-0.3,2.6-0.8,3.8c-0.5,1.2-1.2,2.2-2.1,3.1s-1.9,1.6-3.1,2.1c-1.2,0.5-2.4,0.8-3.8,0.8H77.2c-0.7,0-1.1-0.4-1.1-1.1V73.6
	c0-0.7,0.4-1.1,1.1-1.1L88.7,72.5L88.7,72.5z M89.4,82.6c0-0.5-0.2-0.9-0.5-1.3c-0.4-0.4-0.8-0.5-1.3-0.5h-2.5v29.8h2.5
	c0.5,0,0.9-0.2,1.3-0.5c0.4-0.4,0.5-0.8,0.5-1.3V82.6L89.4,82.6z M123.5,110.8v6.9c0,0.7-0.4,1.1-1.1,1.1h-16.7
	c-0.7,0-1.1-0.4-1.1-1.1V73.6c0-0.7,0.4-1.1,1.1-1.1h16.7c0.7,0,1.1,0.4,1.1,1.1v6.8c0,0.7-0.4,1.1-1.1,1.1h-8.8v8.8h7.6
	c0.7,0,1.1,0.4,1.1,1.1v6.9c0,0.7-0.4,1.1-1.1,1.1h-7.6v10.4h8.8C123.1,109.7,123.5,110.1,123.5,110.8L123.5,110.8z"/>
<path class="st0" d="M168,97.7c0.2,0.2,0.3,0.6,0,0.8c-0.7,0.4-1.5,0.4-2.3,0.3c-1.3-0.1-2.9-0.2-3.6-1.5c0,0,0,0,0,0
	c-0.9-0.5,0.6-0.8,1-0.9c0.9-0.1,2,0.1,2.9,0.3C166.6,96.9,167.4,97.1,168,97.7L168,97.7z M180.2,117.8c-0.6,0.4-0.4,1.2-0.8,1.7
	c-0.4,0.5-1.5,0.5-2.1,0.5c-2.4,0-4.8-0.2-7.1,0c-0.6,0-1.2,0.1-1.7,0.3c-0.2,0-0.4,0.1-0.6,0c-0.5-0.3-0.9-1-1.6-0.8
	c-0.5,0.2-0.9,1-1.6,0.5c-1.2-0.9-2.1-0.1-3.3,0.1c-1.3,0.3-2.5-0.4-3.7-0.1c-0.9,0.3-1.8,0.5-2.8,0.2c-0.9-0.3-1.2-1.1-0.4-1.8
	c1.3-1.1,2.9-1.2,4.5-1.1c2.5,0.2,4.9,0,7.3-0.1c0.1,0,0.1,0,0.1,0.1c1,0.4,1.7-0.4,2.3-1.2c0.1-0.1,0.2,0,0.3,0
	c0.9,1.3,2-0.2,3.1,0c0.3,0,0.6,0.1,0.8,0.4c0.1,0.1,0.1,0.3,0.1,0.4c0,0.7,0.9,0.5,0.9-0.1c0-0.1,0.1-0.2,0.2-0.2
	c0.9,0.4,2,0.8,2.7-0.1c0.6-0.8,0.7-1.9,0.8-2.8c0.1-2.5,0-5.1-0.2-7.7c-0.1-2.5-0.4-5-0.1-7.4c0.3-2.4,0.3-4.8,0.2-7.3
	c0-1.3-0.1-2.6,0-3.8c0-1.2,0.3-2.4,0.1-3.6c-0.1-1-0.8-2-0.9-3c-0.1-0.9,0-1.9,0.2-2.9c0.1-0.6,0.4-1.3,0.4-1.8c0-0.5,0-1,0-1.5
	c0-0.3,0-0.7,0.1-0.9c0.3-0.4,0.4-0.9-0.3-0.9c-1.7-0.2-3.4-1.3-4.9-0.2c0,0.4,0,0.8,0,1.1l0.2,0.3c0.4,0.2,0.8,0.2,1.2,0.3
	c0.5,0,1-0.1,1.6-0.1c0.4,0,0.8,0.4,0.6,0.9c-0.1,0.4-0.4,0.7-0.6,0.9c-0.3,0.5-0.3,1.3-0.3,1.9c0,1.5,0,3.1,0,4.6
	c0,1.3,0.2,2.5,0.3,3.8c0,0,0.1,0,0.1,0.1c0,1.4,0.5,2.8,0.5,4.3c0,0-0.4,1.8-0.4,1.8c0,1.8-0.2,5.3-0.2,5.3c0,3.1-0.6,6.3,0,9.4
	c0.2,1.3-0.3,2.5-0.3,3.7c0,1.4,0.1,2.8-0.1,4.1c0,0.1,0,0.2-0.1,0.2c-2.9,0.5-5.8,0.7-8.7,0.5c-0.7,0-1.6-0.1-2.3,0.2
	c-0.3,0.1-0.7,0.3-1,0.3c-0.4,0-0.6-0.4-1-0.4c-0.5-0.1-1-0.2-1.5-0.3c-1.3-0.2-2.5-0.3-3.8,0.3c-0.7,0.3-1.4,0.2-2.1-0.1
	c-0.8-0.3-1.4-0.7-2.3-0.3c-0.4,0.2-0.7,0.4-1.1,0.4c-0.3,0.1-0.6,0-0.9-0.1c-0.7-0.3-1.2-0.3-1.9-0.2c0.1,0.1,0,0.3-0.1,0.3
	c-4.3-0.2-8.5,0.3-12.8,0.3c-0.2,0-0.4,0.3-0.5,0.3H135c-0.1,0-0.1-0.4-0.1-0.4c-0.6-0.6-0.4-2.7-0.4-3.3c0.2-4-0.3-8-0.4-11.9
	c0-2,0-4,0.3-5.9c0.4-2.2,0.4-4.3,0.3-6.6c-0.1-4.4,0.3-8.8,0.2-13.1c0-0.1,0.1-0.1,0.1-0.1l0,0c1.2-0.1,2.5-0.4,3.6-0.1
	c0,0,0,0,0,0l0.2,0h1.3c0,0,0.1,0,0.1,0c2.3,0,4.6-0.2,6.9-0.3c0.8,0,1.6,0,2.4-0.3c0.4-0.1,0.9-0.3,1.3-0.3c1,0.1,2.1,0.4,3.1,0.6
	c0.7,0.1,1.2-1.1,1.9-0.7c1,0.6,2.1,0.4,3.3,0.4c0.6,0,1.2-0.1,1.8-0.1c0.3,0,0.6,0.1,0.9,0.1c0.3,0,0.5,0,0.9,0.1l5.4-0.2
	c1.1,0,2.2,0.1,3.3-0.3c0.3-0.1,0.4-0.3,0.5-0.4c0-0.1-0.1-0.2-0.1-0.3c-0.1-0.1-0.2-0.3-0.3-0.4c-1.2-0.4-2.5-0.3-3.7-0.3
	c-1.7-0.1-3.3,0.1-4.9,0.3c-1.5,0.1-3.1,0.2-4.7,0.1c-0.9-0.1-2.6-0.5-3.4,0.1c-0.1,0-0.1,0-0.2,0c-1.5-1.2-3.4,0.6-5.1,0.1
	c-1-0.3-2-0.5-3-0.4c-1,0.1-2,0.3-3.1,0.3c-2.3,0-4.6,0.1-6.8,0c-0.5,0-1,0-1.4-0.1c-0.4,0-0.9-0.3-1.3-0.1
	c-0.6,0.2-0.8,0.4-0.7,0.6c0.2,0.1-0.4,0.9-0.4,1.3l0,1c0,1.6-0.1,3-0.5,4.5c-0.2,0.8-0.6,1.9-0.3,2.7c0.2,0.5,0.6,0.9,0.8,1.3
	c0.4,0.9,0.4,1.9,0.4,2.8l-0.3,9c-0.1,3-0.3,6-0.2,9c0.1,2.8,0.5,5.6,0.2,8.4c-0.1,0.9-1.2,2.6-0.2,3.2c0.6,0.4,1.3,0.4,2,0.5
	c1.7,0.1,3.4-0.1,5.1-0.3c0.6-0.1,1.3-0.2,1.9-0.2c0.5,0,0.9,0,1.4,0.2c0.4,0.1,1,0.4,1.5,0.4c0,0,0.8,0,0.8-0.2
	c0.6-0.3,1.2-0.5,2-0.3c0.8,0.1,1.5,0.3,2.3,0.1c0.4-0.1,1-0.1,1.5,0l0.2,0.1c0.2-0.1-0.1,0.2-0.3,0.3c-0.9,0.4-0.7,1.6-0.8,2.4
	c0,0.1-0.1,0.1-0.1,0.1c-0.4,0-0.9,0-1.1-0.4c-0.4-0.8-1.5-1.4-1.5,0.3c0,0.1-0.1,0.1-0.1,0.1c-0.1,0-0.1,0-0.1-0.1
	c0-0.1-1.1-0.7-1.2-0.8c-0.5-0.3-1.2-0.7-1.8-0.4c-0.4,0.1-0.7,0.4-1.1,0.5c-0.7,0.8-1.4,1.7-2.4,1.2c-0.2-0.1-1-0.8-1.2-0.7
	c-0.2,0.3-0.5,0.5-0.8,0.6c-0.9,0.4-1.8,0.3-2.8,0.3c0,0-0.1,0-0.1-0.1c0-0.4-0.3-1.1-0.8-0.7c-0.1,0.1-0.2,0.2-0.4,0.3
	c-0.1,0.1-0.3,0.3-0.5,0.4c-0.6,0.3-2.6-0.1-2.8-0.5c-0.2-0.3-0.3-0.7-0.4-1c-0.1-0.9,0-1.9-0.1-2.9c-0.1-2.4-0.3-4.7-0.4-7.1
	c-0.1-1.2-0.2-2.4-0.1-3.7c0-0.8,0.1-1.8,0.5-2.6c0.3-0.6,0.1-1-0.3-1.4c-0.1-0.1-0.1-0.4-0.1-0.5c-0.1-0.9,0.1-1.8,0.1-2.7
	c0-0.7,0.1-1.3,0.1-2c0-0.5-0.1-1-0.1-1.5c0-0.3,0-0.5,0.1-0.7c0.3-0.4,0.3-0.7,0.1-1.1c-0.3-0.9,0-2,0-3c0.1-1.1,0.1-2.2,0-3.4
	c-0.1-1.3-0.4-2.5-0.3-3.8c0.1-1.2,0.1-2.2,0.2-3.3c0.1-2.1,0.1-4.1,0-6.2v0.5c0,0-0.2-2.6,0.9-3.3c1.7-0.9,3.7-0.8,5.5-0.9
	c2.4-0.1,4.8,0.1,7.1,0.1c1.4,0,2.8,0,4.1-0.3c0.9-0.2,1.9-0.3,2.9-0.3c1.2,0.1,2.3,0.4,3.5,0.5c1.2,0.1,2.3,0,3.4,0
	c2.5-0.2,5-0.1,7.5,0l3.9,0.2c0.6,0,1.3,0.2,1.9,0l1.1-0.4c0.8-0.2,1.4,0,2.2,0.2l2.9,0.7c0.3-0.1,0.7-0.1,0.9,0.1
	c0.5,0.5,0,1.1,0.4,1.7c0.5,0.7,0.9,1.1,1,2c0.1,0.9,0.1,1.9-0.1,2.8c-0.2,0.6-0.5,1.3-0.2,1.9c0.1,0.4,0.4,0.8,0.5,1.2
	c0.2,0.9,0.2,1.8,0.1,2.7c0,1-0.1,2.1-0.2,3.1c-0.1,0.7-0.4,1.3-0.4,2c0,0.5,0.1,1,0.3,1.5c0.4,1.7-1.2,2.8-1.4,4.4
	c-0.1,0.9,0.8,0.5,1.3,1c0.3,0.3,0.1,0.9,0.1,1.2c-0.1,0.9,0.2,1.8,0.1,2.8c0,1.2-0.4,2.1-0.1,3.3c0.1,0.7,0.3,1.3,0.1,2
	s-0.9,2.3,0.1,2.6c0,0,0.1,0,0.1,0.1c0,0.3,0,0.5-0.2,0.8c-0.4,1,0.3,0.8,0.4,1.4c0.1,0.6-0.2,0.8-0.3,1.4c-0.1,0.9,0.3,1.6,0.3,2.5
	c0,0.8-0.5,1.3-0.3,2c0,0,0.1,0,0.1,0.1c0.1,0.4,0.1,0.9,0,1.3C179.8,117.2,179.5,117.3,180.2,117.8
	C180.3,117.6,180.3,117.7,180.2,117.8L180.2,117.8z M169.3,89.9c-0.4-2.5-0.6-5-1.4-7.4c-0.4-1-0.5-2.1-1.7-2.2
	c-1.5-0.3-1,1-0.8,2.2c0.3,1.8,0.4,3.7,0.9,5.6c0.3,1.3,0.9,2.8-0.7,1.8c-2.8-1.7-3.8-5.4-4.9-8.2c-0.5-1.3-2-4.3-3-5
	c-0.5-0.4-2.9-0.9-3.3-0.6c-1,0.7,2.1,5.4,2.5,6.2c0.9,1.9,1.9,3.8,3.1,5.5c0.9,1.2,2.2,2.3,0.3,3c-2,0.8-2.9-0.4-4.3-1.4
	c-1.1-0.8-2.4-0.9-3.8-1.1c-3.7-0.4-7.2,0-10.2,2.4c-1.4,1.2-2.3,2.8-3.1,4.5c-0.2,0.4-1.4,4.1-1.3,4.2c-0.8-0.1-0.3-1.9-1.3-0.9
	c-0.9,0.9,0.3,3.5,0.6,4.4c0.9,2,1.8,4,2.4,6.1c0.7,2.1,0.8,2.1,2.8,2.2c2.5,0.2,4.9-0.5,7.3-0.8c0,0-4.3-2.7,4.2,0.3
	c1.9,0.7,3.9,0.5,5.9,0.5c1.4-0.3,1.4-2.8,2.2-3.9c0.3-0.4,1.6-2.6,2.1-2.7c0.6-0.2,1.5,0.4,2.1,0.5c3.5,0.5,4.6-2.4,4.1-5.2
	c-0.5-2.5-0.2-5.2,0.1-7.2C170.1,92.1,169.4,90.6,169.3,89.9L169.3,89.9z M153.5,120.1c-0.4-0.4-0.9-0.4-1.3-0.8
	c-0.2-0.2-0.3-0.4-0.2-0.7c0,0,0,0,0,0c-0.3-0.5,0.4-0.9,0.8-0.8c0.2,0.1,0.6,0.3,0.6,0.5c0,0.4-0.2,0.6-0.3,0.9
	c0.3,0.1,0.5,0.5,0.6,0.7C153.8,120,153.6,120.2,153.5,120.1L153.5,120.1z"/>
<g>
	<path class="st0" d="M39.8,124.9l2.2,3.6h0v-3.6h1.1v5.4H42l-2.2-3.6h0v3.6h-1.1v-5.4H39.8z"/>
	<path class="st0" d="M45.7,126.5c0.1-0.3,0.3-0.7,0.5-0.9c0.2-0.3,0.5-0.5,0.8-0.6c0.3-0.1,0.7-0.2,1.1-0.2s0.8,0.1,1.1,0.2
		c0.3,0.1,0.6,0.4,0.8,0.6c0.2,0.3,0.4,0.6,0.5,0.9c0.1,0.3,0.2,0.7,0.2,1.1s-0.1,0.8-0.2,1.1c-0.1,0.3-0.3,0.6-0.5,0.9
		c-0.2,0.3-0.5,0.4-0.8,0.6c-0.3,0.1-0.7,0.2-1.1,0.2s-0.8-0.1-1.1-0.2c-0.3-0.1-0.6-0.3-0.8-0.6c-0.2-0.3-0.4-0.5-0.5-0.9
		c-0.1-0.3-0.2-0.7-0.2-1.1C45.5,127.2,45.6,126.8,45.7,126.5z M46.8,128.3c0.1,0.2,0.1,0.4,0.3,0.6c0.1,0.2,0.3,0.3,0.5,0.4
		c0.2,0.1,0.4,0.1,0.7,0.1c0.3,0,0.5,0,0.7-0.1c0.2-0.1,0.3-0.2,0.5-0.4c0.1-0.2,0.2-0.4,0.3-0.6c0.1-0.2,0.1-0.4,0.1-0.7
		s0-0.5-0.1-0.7c-0.1-0.2-0.1-0.4-0.3-0.6c-0.1-0.2-0.3-0.3-0.5-0.4c-0.2-0.1-0.4-0.1-0.7-0.1c-0.3,0-0.5,0-0.7,0.1
		c-0.2,0.1-0.3,0.3-0.5,0.4s-0.2,0.4-0.3,0.6c0,0.2-0.1,0.4-0.1,0.7C46.7,127.8,46.8,128.1,46.8,128.3z"/>
	<path class="st0" d="M55.5,124.9c0.4,0,0.7,0.1,1,0.2c0.3,0.1,0.6,0.3,0.8,0.5s0.4,0.5,0.5,0.8c0.1,0.3,0.2,0.7,0.2,1.2
		c0,0.4,0,0.8-0.1,1.1c-0.1,0.3-0.3,0.6-0.5,0.9c-0.2,0.3-0.5,0.4-0.8,0.6c-0.3,0.1-0.7,0.2-1.1,0.2h-2.3v-5.4L55.5,124.9
		L55.5,124.9z M55.4,129.3c0.2,0,0.3,0,0.5-0.1c0.2-0.1,0.3-0.1,0.4-0.3c0.1-0.1,0.2-0.3,0.3-0.5c0.1-0.2,0.1-0.5,0.1-0.8
		c0-0.3,0-0.5-0.1-0.7c-0.1-0.2-0.1-0.4-0.3-0.6s-0.3-0.3-0.5-0.4c-0.2-0.1-0.4-0.1-0.7-0.1h-0.8v3.4H55.4z"/>
	<path class="st0" d="M64.3,124.9v1h-2.9v1.2h2.6v0.9h-2.6v1.3h2.9v1h-4.1v-5.4L64.3,124.9L64.3,124.9z"/>
	<path class="st0" d="M69.9,125.9v-1h4.4v1h-1.6v4.4h-1.2v-4.4H69.9z"/>
	<path class="st0" d="M80.5,124.9v1h-2.9v1.2h2.6v0.9h-2.6v1.3h2.9v1h-4.1v-5.4L80.5,124.9L80.5,124.9z"/>
	<path class="st0" d="M84.5,124.9l1.3,3.7h0l1.2-3.7h1.7v5.4h-1.1v-3.8h0l-1.3,3.8h-0.9l-1.3-3.8h0v3.8h-1.1v-5.4H84.5z"/>
	<path class="st0" d="M93.6,124.9c0.3,0,0.6,0,0.9,0.1c0.2,0.1,0.4,0.2,0.6,0.4c0.1,0.2,0.3,0.3,0.3,0.5c0.1,0.2,0.1,0.4,0.1,0.7
		c0,0.2,0,0.4-0.1,0.6c-0.1,0.2-0.2,0.4-0.3,0.5c-0.1,0.2-0.3,0.3-0.6,0.4c-0.2,0.1-0.5,0.1-0.9,0.1h-1.2v1.9h-1.2v-5.4L93.6,124.9
		L93.6,124.9z M93.3,127.4c0.1,0,0.3,0,0.4,0c0.1,0,0.2-0.1,0.3-0.1c0.1-0.1,0.2-0.1,0.2-0.3c0.1-0.1,0.1-0.3,0.1-0.4s0-0.3-0.1-0.4
		c-0.1-0.1-0.1-0.2-0.2-0.3c-0.1-0.1-0.2-0.1-0.3-0.1c-0.1,0-0.3,0-0.4,0h-0.9v1.6L93.3,127.4L93.3,127.4z"/>
	<path class="st0" d="M98.9,124.9v4.4h2.6v1h-3.8v-5.4L98.9,124.9L98.9,124.9z"/>
	<path class="st0" d="M106.4,124.9l2,5.4h-1.2l-0.4-1.2h-2l-0.4,1.2h-1.2l2-5.4H106.4z M106.5,128.2l-0.7-2h0l-0.7,2H106.5z"/>
	<path class="st0" d="M109.3,125.9v-1h4.4v1h-1.6v4.4h-1.2v-4.4H109.3z"/>
	<path class="st0" d="M119.9,124.9v1h-2.9v1.2h2.6v0.9h-2.6v1.3h2.9v1h-4.1v-5.4L119.9,124.9L119.9,124.9z"/>
	<path class="st0" d="M129.9,124.9v1h-2.9v1.2h2.6v0.9h-2.6v1.3h2.9v1h-4.1v-5.4L129.9,124.9L129.9,124.9z"/>
	<path class="st0" d="M133.5,124.9l2.2,3.6h0v-3.6h1.1v5.4h-1.2l-2.2-3.6h0v3.6h-1.1v-5.4H133.5z"/>
	<path class="st0" d="M142.6,130.3c-0.3,0.1-0.5,0.2-0.8,0.2c-0.4,0-0.8-0.1-1.1-0.2c-0.3-0.1-0.6-0.3-0.8-0.6
		c-0.2-0.3-0.4-0.5-0.5-0.9c-0.1-0.3-0.2-0.7-0.2-1.1c0-0.4,0.1-0.8,0.2-1.1c0.1-0.3,0.3-0.7,0.5-0.9c0.2-0.3,0.5-0.5,0.8-0.6
		c0.3-0.1,0.7-0.2,1.1-0.2c0.3,0,0.5,0,0.8,0.1c0.3,0.1,0.5,0.2,0.7,0.4c0.2,0.2,0.4,0.4,0.5,0.6c0.1,0.2,0.2,0.5,0.3,0.8H143
		c-0.1-0.3-0.2-0.5-0.4-0.7c-0.2-0.1-0.4-0.2-0.7-0.2c-0.3,0-0.5,0-0.7,0.1c-0.2,0.1-0.3,0.3-0.5,0.4c-0.1,0.2-0.2,0.4-0.3,0.6
		s-0.1,0.4-0.1,0.7c0,0.2,0,0.4,0.1,0.7c0.1,0.2,0.1,0.4,0.3,0.6c0.1,0.2,0.3,0.3,0.5,0.4c0.2,0.1,0.4,0.1,0.7,0.1
		c0.4,0,0.7-0.1,0.9-0.3c0.2-0.2,0.3-0.5,0.4-0.9h-1.2v-0.9h2.3v2.9h-0.8l-0.1-0.6C143.1,129.9,142.9,130.2,142.6,130.3z"/>
	<path class="st0" d="M147.8,124.9v5.4h-1.2v-5.4H147.8z"/>
	<path class="st0" d="M151.6,124.9l2.2,3.6h0v-3.6h1.1v5.4h-1.2l-2.2-3.6h0v3.6h-1.1v-5.4H151.6z"/>
	<path class="st0" d="M161.6,124.9v1h-2.9v1.2h2.6v0.9h-2.6v1.3h2.9v1h-4.1v-5.4L161.6,124.9L161.6,124.9z"/>
</g>
</svg>
