<?xml version="1.0" encoding="utf-8"?>
<!-- Generator: Adobe Illustrator 19.1.0, SVG Export Plug-In . SVG Version: 6.00 Build 0)  -->
<svg version="1.1" id="Capa_1" xmlns="http://www.w3.org/2000/svg" xmlns:xlink="http://www.w3.org/1999/xlink" x="0px" y="0px"
	 viewBox="0 0 200 200" style="enable-background:new 0 0 200 200;" xml:space="preserve">
<style type="text/css">
	.st0{fill:#C6C6C6;}
	.st1{fill-rule:evenodd;clip-rule:evenodd;fill:#E2E2E2;}
	.st2{clip-path:url(#SVGID_2_);}
	.st3{clip-path:url(#SVGID_4_);fill:#C6C6C6;}
	.st4{fill:#FDFDFD;}
	.st5{fill:#FCFCFC;}
	.st6{fill:#E2E2E2;}
	.st7{fill:#FFFFFF;}
	.st8{fill:#EBEBEB;}
	.st9{fill:url(#SVGID_5_);}
</style>
<g>
	<path class="st0" d="M70.2,58.3l0.3-1.1c-0.2,0,1.5-2.6,1.3-2.6c-12.4,12-11.3,28-5.4,39.5c4.1,8,11.7,15.6,20.8,19.6
		c4.2,1.9,10.6,3.6,17.3,3.5c14.4-0.3,24.5-7.1,30.2-18.2l0.3-0.9c-5,5.1-13.2,8.6-19.6,9.2C88.8,110.1,61.3,86.2,70.2,58.3z"/>
	<path class="st0" d="M105.7,62.4c3.5,5.7,10.3,10.7,20.8,8.4c2.7-0.6,8.7-5.1,9.7-7.5c-9,6.1-14.6,4.1-17.3,3.3
		c-0.6-0.2-1.9-0.8-3.2-1.5c-2.8-1.7-4.2-2.4-6.3-5.6c-1.2-1.7-2.4-4.5-2.8-6.1c-0.6-2.6-0.5-6.6,0.8-10.1
		c-4.1,3.6-4.7,10.7-3.3,15.3C104.2,59.2,105.2,61.5,105.7,62.4z"/>
	<path class="st0" d="M108.6,92.4c14.1,1.9,24.6-4,28.3-13.3c-4.2,4.4-11.2,7.5-17.9,7.5c-15-0.1-31.9-13.6-30-32.3
		c0.2-1.6,0.8-4.1,2.5-7.4c-5,6.3-8,11.5-7.2,20.1C85.5,78.9,96.7,90.8,108.6,92.4z"/>
</g>
<g>
	<path class="st0" d="M148.3,127.5l-8.2,11.3l-0.7-3h-5.4c0,0,0.5,2.7,0.9,4.1c0.4,1.4,1.1,2.7,1.1,4.1c0,1.5-0.8,4.5-0.8,4.5l5.2,0
		c0,0,0.6-2.8,1.1-4.1c0.2-0.5,0.6-0.9,0.9-1.3c0.9-1.2,11.5-15.5,11.5-15.5L148.3,127.5z"/>
	<path class="st0" d="M137.5,130.6c-1.1-0.7-3.9-0.4-6.2-0.4h-3.6c-2.3,0-3.6-0.1-3.8,0.7c-0.7,2.7-3.7,17.5-3.7,17.5h4.8l3.1-13.7
		h2.6c3,0,8.5-0.1,8.5-0.1S138.6,131.2,137.5,130.6z"/>
	<path class="st0" d="M119.2,132c-1-1.4-3.1-1.9-4.4-2c-3.6-0.4-6.6,0.6-8.3,1.8c-0.5,0.4-0.9,0.7-1.3,1.1c-0.1,0.2-0.3,0.3-0.4,0.5
		c-0.1,0.2-0.2,0.3-0.3,0.4c-0.2,0.2-0.3,0.7-0.5,1.1c-0.2,0.3-0.3,0.7-0.4,1c-1,2.5-2,7.2-1.1,9.6c0.1,0.4,0.4,0.8,0.5,1
		c0.1,0.2,0.2,0.4,0.4,0.5c0.5,0.5,1.2,0.9,2,1.1c4,1,12,0.6,12,0.6l1-4.3c0,0-5.7,0.3-8.4-0.1c-0.4-0.1-1.5-0.1-2.1-0.6
		c-0.5-0.4-1.1-1.5-0.7-2.2c0.3-0.5,1.5-0.3,2.6-0.4c3.3-0.1,9.4,0,9.4,0s1.2-5.2,0.6-7.4C119.6,133.1,119.4,132.4,119.2,132z
		 M115.2,137.2l-7.2,0c0,0-0.1-3.1,4.1-3c1.5,0,2,0.2,2.6,1.1C115.3,136.3,115.2,137.2,115.2,137.2z"/>
	<path class="st0" d="M97.7,130.1L94.4,144c0,0-1.8,0-2.4,0c-1.8,0-2.4-0.1-2.8-0.9c-0.4-0.9,0-2,0.2-3.1c0.6-3.3,1.9-9.8,1.9-9.8
		l-4.8,0c0,0-0.9,4.2-1.4,6.3c-0.6,2.9-1.9,7.2-0.6,9.8c1.4,2.7,4.8,2.2,8.5,2.2h5.4c1.3-6,3.9-18.3,3.9-18.3L97.7,130.1z"/>
	<path class="st0" d="M82.4,132.2c-0.3-2.1-1.6-4.3-3.1-5.2c-0.1,0-0.3-0.2-0.4-0.3c-1.1-0.6-2.8-1.2-4.1-1.3
		c-6.3-0.6-10,2.1-12.2,5.9c-0.8,1.5-1.4,3.1-1.8,4.8c-0.5,1.9-0.8,4.2-0.6,6.3c0.2,1.3,0.9,3,1.8,4.1c2.4,2.6,7.2,2.2,12.4,2.2
		c1.6,0,5.3,0,6.5-0.1c0.4,0,1.4-4.3,1.3-4.4c-0.1-0.1-1.3,0-2.8-0.1C80.8,140.3,82.9,136,82.4,132.2z M75.9,139
		c-0.5,1.6-0.9,3.3-1.5,4.8c-3.7,0-7.2,0.5-8.3-1.8c-0.6-1.3-0.3-3.1,0-4.8c0.5-2.3,0.9-3.9,2.2-5.4c1-1.1,3.6-2.4,6.3-1.5
		c0.9,0.3,2.3,1.8,2.4,3.5C77.1,135.4,76.4,137.3,75.9,139z"/>
	<path class="st0" d="M53.5,134.6h5.2c0.3-1.4,0.6-3,0.9-4.4c-1.8,0-3.4,0-5,0C54.2,131.5,53.9,133,53.5,134.6z"/>
	<path class="st0" d="M51.3,144.4c-0.8,3.6-0.9,7.3-4.8,6.8c-0.4,1.4-0.9,3.2-1.3,4.8c1.6,0,3.1,0.2,4.4,0c0.8-0.1,2.3-0.4,2.6-0.7
		c0.1-0.1,0.2-0.1,0.4-0.2c1.7-1.3,2.1-3.2,2.8-5.7c1-4.1,2.3-9.9,3-13.5h-5C53.1,136.7,51.8,142.3,51.3,144.4z"/>
</g>
</svg>
