<?xml version="1.0" encoding="utf-8"?>
<!-- Generator: Adobe Illustrator 19.1.0, SVG Export Plug-In . SVG Version: 6.00 Build 0)  -->
<svg version="1.1" id="Capa_1" xmlns="http://www.w3.org/2000/svg" xmlns:xlink="http://www.w3.org/1999/xlink" x="0px" y="0px"
	 viewBox="0 0 200 200" style="enable-background:new 0 0 200 200;" xml:space="preserve">
<style type="text/css">
	.st0{fill:#C6C6C6;}
	.st1{fill-rule:evenodd;clip-rule:evenodd;fill:#E2E2E2;}
	.st2{clip-path:url(#SVGID_2_);}
	.st3{clip-path:url(#SVGID_4_);fill:#C6C6C6;}
	.st4{fill:#FDFDFD;}
	.st5{fill:#FCFCFC;}
	.st6{fill:#E2E2E2;}
	.st7{fill:#FFFFFF;}
	.st8{fill:#EBEBEB;}
	.st9{fill:url(#SVGID_5_);}
	.st10{fill-rule:evenodd;clip-rule:evenodd;fill:#C6C6C6;}
	.st11{fill:none;stroke:#C6C6C6;stroke-width:5;stroke-miterlimit:10;}
</style>
<g>
	<path class="st0" d="M100,122.7L36.9,90.1L100,57.4l63.1,32.6L100,122.7z M47.8,90.1l52.2,27l52.2-27L100,63L47.8,90.1z"/>
	<path class="st0" d="M100,139.3c-5.9,0-11.8-0.8-18.2-2.6l1.3-4.8c6,1.6,11.5,2.4,16.9,2.4c23.2,0,35.3-14.6,35.3-22.4v-11.6h5
		v11.6C140.3,123.4,125,139.3,100,139.3z"/>
	<polygon class="st0" points="64.7,123.9 59.7,123.9 59.7,98.1 99.4,87.6 100.6,92.5 64.7,101.9 	"/>
	<path class="st0" d="M62.2,142.3c-5.8,0-10.5-4.7-10.5-10.5s4.7-10.5,10.5-10.5s10.5,4.7,10.5,10.5S68,142.3,62.2,142.3z
		 M62.2,126.4c-3,0-5.5,2.4-5.5,5.5s2.4,5.5,5.5,5.5s5.5-2.4,5.5-5.5S65.2,126.4,62.2,126.4z"/>
</g>
</svg>
