<?xml version="1.0" encoding="utf-8"?>
<!-- Generator: Adobe Illustrator 19.1.0, SVG Export Plug-In . SVG Version: 6.00 Build 0)  -->
<svg version="1.1" id="Capa_1" xmlns="http://www.w3.org/2000/svg" xmlns:xlink="http://www.w3.org/1999/xlink" x="0px" y="0px"
	 viewBox="0 0 105.3 105.3" style="enable-background:new 0 0 105.3 105.3;" xml:space="preserve">
<style type="text/css">
	.st0{fill:#C6C6C6;}
	.st1{fill-rule:evenodd;clip-rule:evenodd;fill:#E2E2E2;}
	.st2{clip-path:url(#SVGID_2_);}
	.st3{clip-path:url(#SVGID_4_);fill:#C6C6C6;}
	.st4{fill:#FDFDFD;}
	.st5{fill:#FCFCFC;}
	.st6{fill:#E2E2E2;}
	.st7{fill:#FFFFFF;}
	.st8{fill:#EBEBEB;}
	.st9{fill:url(#SVGID_5_);}
	.st10{fill-rule:evenodd;clip-rule:evenodd;fill:#C6C6C6;}
	.st11{fill:none;stroke:#C6C6C6;stroke-width:5;stroke-miterlimit:10;}
</style>
<path class="st7" d="M95.3,52.7l3.4-4.9l-4.3-4.1l2.3-5.5l-5.1-3.1l1.1-5.9l-5.6-1.9l-0.1-6l-5.9-0.7l-1.3-5.8L74,15.2l-2.5-5.4
	l-5.6,1.8l-3.5-4.8l-5.2,2.9l-4.4-3.9l-4.5,3.9l-5.2-2.9l-3.5,4.8l-5.6-1.8l-2.5,5.4l-5.9-0.5l-1.3,5.8l-5.9,0.7l-0.1,6l-5.6,1.9
	l1.1,5.9l-5.1,3.1l2.3,5.5l-4.3,4.1l3.4,4.9l-3.4,4.9l4.3,4.1l-2.3,5.5l5.1,3.1l-1.1,5.9l5.6,2l0.1,6l5.9,0.7l1.3,5.8l5.9-0.5
	l2.5,5.4l5.6-1.8l3.6,4.8l5.2-2.9l4.5,3.9l4.4-3.9l5.2,2.9l3.5-4.8l5.6,1.8l2.5-5.4l5.9,0.5l1.3-5.8l5.9-0.7l0.1-6l5.6-1.9l-1.1-5.9
	l5.1-3.1l-2.3-5.5l4.3-4.1L95.3,52.7z M43.3,71.6H34V35.6l9.3,18.9V71.6z M71.3,71.6H56.9L37.6,33.8h10.9l12.7,25.9H62V33.8h9.4
	V71.6z"/>
</svg>
