<?xml version="1.0" encoding="utf-8"?>
<!-- Generator: Adobe Illustrator 19.1.0, SVG Export Plug-In . SVG Version: 6.00 Build 0)  -->
<svg version="1.1" id="Capa_1" xmlns="http://www.w3.org/2000/svg" xmlns:xlink="http://www.w3.org/1999/xlink" x="0px" y="0px"
	 viewBox="0 0 200 200" style="enable-background:new 0 0 200 200;" xml:space="preserve">
<style type="text/css">
	.st0{fill:#C6C6C6;}
	.st1{fill-rule:evenodd;clip-rule:evenodd;fill:#E2E2E2;}
	.st2{clip-path:url(#SVGID_2_);}
	.st3{clip-path:url(#SVGID_4_);fill:#C6C6C6;}
	.st4{fill:#FDFDFD;}
	.st5{fill:#FCFCFC;}
	.st6{fill:#E2E2E2;}
	.st7{fill:#FFFFFF;}
	.st8{fill:#EBEBEB;}
	.st9{fill:url(#SVGID_5_);}
	.st10{fill-rule:evenodd;clip-rule:evenodd;fill:#C6C6C6;}
	.st11{fill:none;stroke:#C6C6C6;stroke-width:5;stroke-miterlimit:10;}
</style>
<g>
	<path class="st0" d="M86,85.2c-2,0-3.4,0.2-4,0.4v12.8c0.8,0.2,1.9,0.2,3.3,0.2c5.2,0,8.5-2.6,8.5-7.1C93.7,87.6,90.9,85.2,86,85.2
		z"/>
	<path class="st0" d="M59.2,59.2v81.5h81.5V59.2H59.2z M99.4,101.6c-3.3,3.2-8.3,4.6-14.1,4.6c-1.3,0-2.4,0-3.4-0.2v15.6h-9.7V78.7
		c3-0.5,7.3-0.9,13.3-0.9c6.1,0,10.4,1.1,13.3,3.5c2.8,2.2,4.7,5.8,4.7,10.1C103.4,95.6,102,99.2,99.4,101.6z M114.1,122.2
		c-4.1,0-7.8-0.9-10.2-2.2l1.7-7c1.8,1.1,5.5,2.4,8.5,2.4c3,0,4.2-1,4.2-2.7c0-1.6-1-2.4-4.6-3.6c-6.5-2.2-9.1-5.7-9-9.5
		c0-5.9,5-10.3,12.8-10.3c3.7,0,7,0.8,8.9,1.8l-1.7,6.8c-1.4-0.8-4.1-1.8-6.8-1.8c-2.4,0-3.7,1-3.7,2.6c0,1.5,1.2,2.3,5.1,3.6
		c6,2.1,8.5,5.1,8.6,9.7C127.8,117.9,123.1,122.2,114.1,122.2z"/>
</g>
</svg>
