<?xml version="1.0" encoding="utf-8"?>
<!-- Generator: Adobe Illustrator 19.1.0, SVG Export Plug-In . SVG Version: 6.00 Build 0)  -->
<svg version="1.1" id="Capa_1" xmlns="http://www.w3.org/2000/svg" xmlns:xlink="http://www.w3.org/1999/xlink" x="0px" y="0px"
	 viewBox="0 0 200 200" style="enable-background:new 0 0 200 200;" xml:space="preserve">
<style type="text/css">
	.st0{fill:#C6C6C6;}
	.st1{fill-rule:evenodd;clip-rule:evenodd;fill:#E2E2E2;}
	.st2{clip-path:url(#SVGID_2_);}
	.st3{clip-path:url(#SVGID_4_);fill:#C6C6C6;}
	.st4{fill:#FDFDFD;}
	.st5{fill:#FCFCFC;}
	.st6{fill:#E2E2E2;}
	.st7{fill:#FFFFFF;}
	.st8{fill:#EBEBEB;}
	.st9{fill:url(#SVGID_5_);}
</style>
<g>
	<path class="st0" d="M145.5,100c-2.1,13.3-6.2,17.2-13.3,26.1c-7.2,7.6-17.5,20.2-32.2,19.5c-13.3-2.1-17.2-6.2-26.1-13.3
		c-7.6-7.2-20.2-17.5-19.5-32.2c2.1-13.3,6.2-17.2,13.3-26.1C75,66.4,85.3,53.7,100,54.5c13.3,2.1,17.2,6.2,26.1,13.3
		C133.6,75,146.3,85.3,145.5,100z"/>
	<g id="Layer_2_1_">
		<g>
			<g>
				<path class="st7" d="M82.2,94.8c1.8,0,2.9,0.3,3.5,1c0.6,0.6,0.7,1.8,0.4,3.3c-0.3,1.6-0.9,2.8-1.9,3.5c-0.9,0.7-2.3,1-4.2,1
					h-2.8l1.7-8.9C78.9,94.8,82.2,94.8,82.2,94.8z M70.9,112.6h4.6l1-5.7h4c1.8,0,3.1-0.2,4.3-0.5c1.1-0.4,2.2-1,3-1.9
					c0.7-0.7,1.4-1.6,1.9-2.4c0.5-0.8,0.8-1.9,1-2.8c0.5-2.5,0.2-4.4-1-5.9c-1.2-1.4-3.1-2.1-5.8-2.1h-8.9L70.9,112.6z"/>
				<path class="st7" d="M95.5,85.8h4.6l-1,5.7h4.1c2.5,0,4.4,0.5,5.3,1.4c1,0.9,1.3,2.4,0.8,4.4l-1.9,9.9h-4.7l1.9-9.4
					c0.2-1,0.2-1.8-0.2-2.2c-0.4-0.4-1.1-0.6-2.3-0.6h-3.6l-2.4,12.1h-4.6L95.5,85.8z"/>
				<path class="st7" d="M119.4,94.8c1.8,0,2.9,0.3,3.5,1c0.6,0.6,0.7,1.8,0.4,3.3c-0.3,1.6-0.9,2.8-1.9,3.5c-0.9,0.7-2.3,1-4.2,1
					h-2.8l1.7-8.9C116.2,94.8,119.4,94.8,119.4,94.8z M108.2,112.6h4.6l1-5.7h4c1.8,0,3.1-0.2,4.3-0.5c1.1-0.4,2.2-1,3-1.9
					c0.7-0.7,1.4-1.6,1.9-2.4c0.5-0.8,0.8-1.9,1-2.8c0.5-2.5,0.2-4.4-1-5.9c-1.2-1.4-3.1-2.1-5.8-2.1h-8.9L108.2,112.6z"/>
			</g>
		</g>
	</g>
</g>
</svg>
