<?xml version="1.0" encoding="utf-8"?>
<!-- Generator: Adobe Illustrator 19.1.0, SVG Export Plug-In . SVG Version: 6.00 Build 0)  -->
<svg version="1.1" id="Capa_1" xmlns="http://www.w3.org/2000/svg" xmlns:xlink="http://www.w3.org/1999/xlink" x="0px" y="0px"
	 viewBox="0 0 200 200" style="enable-background:new 0 0 200 200;" xml:space="preserve">
<style type="text/css">
	.st0{fill:#C6C6C6;}
	.st1{fill-rule:evenodd;clip-rule:evenodd;fill:#E2E2E2;}
	.st2{clip-path:url(#SVGID_2_);}
	.st3{clip-path:url(#SVGID_4_);fill:#C6C6C6;}
	.st4{fill:#FDFDFD;}
	.st5{fill:#FCFCFC;}
	.st6{fill:#E2E2E2;}
	.st7{fill:#FFFFFF;}
	.st8{fill:#EBEBEB;}
	.st9{fill:url(#SVGID_5_);}
</style>
<path class="st0" d="M152.4,108.1c-5.1,0-9.5,1.2-13.2,3.1c-1.3-2.7-2.7-5.1-2.9-6.8c-0.3-2.1-0.6-3.3-0.3-5.7
	c0.3-2.4,1.7-5.9,1.7-6.2s-0.3-1.5-3.2-1.5c-2.9,0-5.4,0.6-5.7,1.3c-0.3,0.8-0.9,2.5-1.2,4.3c-0.5,2.7-5.8,12.1-8.9,17.1
	c-1-1.9-1.8-3.6-2-5c-0.3-2.1-0.6-3.3-0.3-5.7c0.3-2.4,1.7-5.9,1.7-6.2c0-0.3-0.3-1.5-3.2-1.5c-2.9,0-5.4,0.6-5.7,1.3
	c-0.3,0.8-0.6,2.6-1.2,4.3c-0.6,1.7-7.7,17.5-9.5,21.6c-0.9,2.1-1.8,3.8-2.4,4.9c0,0,0,0,0,0s0,0.1-0.1,0.2c-0.5,1-0.8,1.5-0.8,1.5
	s0,0,0,0c-0.4,0.7-0.8,1.4-1,1.4c-0.1,0-0.4-1.9,0.1-4.5c1.1-5.5,3.6-14,3.6-14.3c0-0.2,0.5-1.6-1.7-2.4c-2.1-0.8-2.8,0.5-3,0.5
	c-0.2,0-0.3,0.4-0.3,0.4s2.3-9.6-4.4-9.6c-4.2,0-10,4.6-12.8,8.7c-1.8,1-5.7,3.1-9.8,5.3c-1.6,0.9-3.2,1.7-4.7,2.6
	c-0.1-0.1-0.2-0.2-0.3-0.3c-8.1-8.7-23.1-14.8-22.5-26.4c0.2-4.2,1.7-15.4,28.8-28.9c22.2-11.1,40-8,43.1-1.3
	c4.4,9.6-9.5,27.6-32.6,30.2c-8.8,1-13.4-2.4-14.6-3.7c-1.2-1.3-1.4-1.4-1.8-1.1c-0.7,0.4-0.3,1.6,0,2.3c0.7,1.8,3.5,5,8.3,6.6
	c4.2,1.4,14.6,2.2,27-2.7c14-5.4,24.9-20.5,21.7-33c-3.3-12.8-24.5-17-44.5-9.9c-11.9,4.2-24.9,10.9-34.2,19.6
	C28.6,79,26.8,88,27.5,91.7c2.6,13.4,21,22.1,28.4,28.5c-0.4,0.2-0.7,0.4-1,0.6c-3.7,1.8-17.7,9.2-21.2,16.9c-4,8.8,0.6,15.1,3.7,16
	c9.5,2.6,19.2-2.1,24.4-9.9c5.2-7.8,4.6-17.9,2.2-22.6c0-0.1-0.1-0.1-0.1-0.2c1-0.6,1.9-1.1,2.9-1.7c1.9-1.1,3.7-2.1,5.3-3
	c-0.9,2.5-1.6,5.4-1.9,9.7c-0.4,5,1.6,11.5,4.3,14c1.2,1.1,2.6,1.1,3.5,1.1c3.1,0,4.5-2.6,6.1-5.7c1.9-3.8,3.6-8.1,3.6-8.1
	s-2.1,11.8,3.7,11.8c2.1,0,4.3-2.8,5.2-4.2c0,0,0,0,0,0s0.1-0.1,0.2-0.3c0.2-0.3,0.3-0.6,0.3-0.6s0,0,0-0.1
	c0.9-1.5,2.7-4.9,5.6-10.4c3.7-7.2,7.2-16.2,7.2-16.2s0.3,2.2,1.4,5.9c0.6,2.1,2,4.5,3,6.8c-0.9,1.2-1.4,1.9-1.4,1.9s0,0,0,0
	c-0.7,0.9-1.4,1.9-2.2,2.8c-2.9,3.5-6.3,7.4-6.8,8.5c-0.5,1.3-0.4,2.3,0.6,3.1c0.8,0.6,2.1,0.7,3.6,0.6c2.6-0.2,4.4-0.8,5.3-1.2
	c1.4-0.5,3-1.3,4.6-2.4c2.8-2.1,4.6-5.1,4.4-9c-0.1-2.2-0.8-4.3-1.7-6.4c0.3-0.4,0.5-0.7,0.8-1.1c4.5-6.5,8-13.7,8-13.7
	s0.3,2.2,1.4,5.9c0.5,1.8,1.6,3.9,2.6,5.8c-4.2,3.4-6.8,7.4-7.7,10c-1.7,4.8-0.4,7,2.1,7.5c1.1,0.2,2.7-0.3,3.9-0.8
	c1.5-0.5,3.2-1.3,4.9-2.5c2.8-2.1,5.6-5,5.4-9c-0.1-1.8-0.6-3.6-1.2-5.3c3.6-1.5,8.2-2.3,14.1-1.6c12.6,1.5,15.1,9.4,14.6,12.7
	c-0.5,3.3-3.1,5.1-4,5.7c-0.9,0.5-1.2,0.7-1.1,1.1c0.1,0.6,0.5,0.6,1.3,0.4c1-0.2,6.6-2.7,6.9-8.8
	C172.9,116.6,165.5,108.1,152.4,108.1z M55,141c-4.2,4.6-10,6.3-12.5,4.8c-2.7-1.6-1.6-8.3,3.5-13.1c3.1-3,7.2-5.7,9.8-7.3
	c0.6-0.4,1.5-0.9,2.6-1.6c0.2-0.1,0.3-0.2,0.3-0.2l0,0c0.2-0.1,0.4-0.3,0.6-0.4C61.2,130.1,59.4,136.2,55,141z M85.5,120.2
	c-1.5,3.6-4.5,12.6-6.4,12.2c-1.6-0.4-2.6-7.3-0.3-14.1c1.1-3.4,3.5-7.5,5-9.1c2.3-2.6,4.8-3.4,5.4-2.4
	C90,108.1,86.4,118,85.5,120.2z M110.7,132.3c-0.6,0.3-1.2,0.5-1.4,0.4c-0.2-0.1,0.3-0.5,0.3-0.5s3.2-3.4,4.4-4.9
	c0.7-0.9,1.6-2,2.5-3.2c0,0.1,0,0.2,0,0.4C116.3,128.4,112.4,131.2,110.7,132.3z M130.1,127.8c-0.5-0.3-0.4-1.4,1.1-4.7
	c0.6-1.3,2-3.5,4.3-5.6c0.3,0.9,0.4,1.7,0.4,2.4C135.9,125.1,132.3,127,130.1,127.8z"/>
</svg>
