<?xml version="1.0" encoding="utf-8"?>
<!-- Generator: Adobe Illustrator 19.1.0, SVG Export Plug-In . SVG Version: 6.00 Build 0)  -->
<svg version="1.1" id="Capa_1" xmlns="http://www.w3.org/2000/svg" xmlns:xlink="http://www.w3.org/1999/xlink" x="0px" y="0px"
	 viewBox="0 0 200 200" style="enable-background:new 0 0 200 200;" xml:space="preserve">
<style type="text/css">
	.st0{fill:#C6C6C6;}
	.st1{fill-rule:evenodd;clip-rule:evenodd;fill:#E2E2E2;}
	.st2{clip-path:url(#SVGID_2_);}
	.st3{clip-path:url(#SVGID_4_);fill:#C6C6C6;}
	.st4{fill:#FDFDFD;}
	.st5{fill:#FCFCFC;}
	.st6{fill:#E2E2E2;}
	.st7{fill:#FFFFFF;}
	.st8{fill:#EBEBEB;}
	.st9{fill:url(#SVGID_5_);}
	.st10{fill-rule:evenodd;clip-rule:evenodd;fill:#C6C6C6;}
	.st11{fill:none;stroke:#C6C6C6;stroke-width:5;stroke-miterlimit:10;}
</style>
<g>
	<polygon class="st1" points="79.5,55 63.2,62.4 51,78.6 100,145 149.8,78.3 137,62.4 118.5,55 	"/>
	<g>
		<defs>
			<path id="SVGID_1_" d="M110.5,130.1l21.3-34.6l8.9-7L110.5,130.1z M75.5,97.6h48.9L100,141L75.5,97.6z M59.2,88.6l8.9,7
				l21.3,34.6L59.2,88.6z M62.9,65.3l15.6,7.4L67.4,88.7L53.5,78L62.9,65.3z M115.1,55.9l14.2,6.1l-14.3,6.7H84.9L70.7,62l14.1-6.1
				L115.1,55.9z M125.7,91.9H74.3l10.5-18.6h30.3L125.7,91.9z M146.3,78l-13.9,10.7l-11.1-16.1l15.6-7.4L146.3,78z M137.7,60.3
				l-18.4-7.9H80.7l-18.4,7.9l-14.9,17l52.6,70.3l52.6-70.3L137.7,60.3z"/>
		</defs>
		<use xlink:href="#SVGID_1_"  style="overflow:visible;fill-rule:evenodd;clip-rule:evenodd;fill:#C6C6C6;"/>
		<clipPath id="SVGID_2_">
			<use xlink:href="#SVGID_1_"  style="overflow:visible;"/>
		</clipPath>
		<g class="st2">
			<defs>
				<rect id="SVGID_3_" x="11" y="12.8" width="177.9" height="177.9"/>
			</defs>
			<use xlink:href="#SVGID_3_"  style="overflow:visible;fill:#C6C6C6;"/>
			<clipPath id="SVGID_4_">
				<use xlink:href="#SVGID_3_"  style="overflow:visible;"/>
			</clipPath>
			<rect x="164.8" y="51.6" class="st3" width="107" height="96.9"/>
		</g>
	</g>
</g>
</svg>
