<?xml version="1.0" encoding="utf-8"?>
<!-- Generator: Adobe Illustrator 19.1.0, SVG Export Plug-In . SVG Version: 6.00 Build 0)  -->
<svg version="1.1" id="Capa_1" xmlns="http://www.w3.org/2000/svg" xmlns:xlink="http://www.w3.org/1999/xlink" x="0px" y="0px"
	 viewBox="0 0 200 200" style="enable-background:new 0 0 200 200;" xml:space="preserve">
<style type="text/css">
	.st0{fill:#C6C6C6;}
	.st1{fill-rule:evenodd;clip-rule:evenodd;fill:#E2E2E2;}
	.st2{clip-path:url(#SVGID_2_);}
	.st3{clip-path:url(#SVGID_4_);fill:#C6C6C6;}
	.st4{fill:#FDFDFD;}
	.st5{fill:#FCFCFC;}
	.st6{fill:#E2E2E2;}
	.st7{fill:#FFFFFF;}
	.st8{fill:#EBEBEB;}
	.st9{fill:url(#SVGID_5_);}
	.st10{fill-rule:evenodd;clip-rule:evenodd;fill:#C6C6C6;}
</style>
<g>
	<path class="st0" d="M70.1,132.1h-4.4c-0.2-7.5-0.6-14.5-1.3-21.1h0l-6.8,21.1h-3.4L47.5,111h0c-0.5,6.3-0.8,13.4-0.9,21.1h-4
		c0.3-9.4,0.9-18.3,2-26.5H50l6.4,19.5h0l6.4-19.5h5.3C69.3,115.2,69.9,124.1,70.1,132.1"/>
	<path class="st0" d="M89.4,112.5c-1.8,9.8-4.2,16.9-7.1,21.4c-2.3,3.4-4.8,5.1-7.6,5.1c-0.7,0-1.6-0.2-2.7-0.7V136
		c0.5,0.1,1.1,0.1,1.8,0.1c1.3,0,2.3-0.4,3.1-1.1c0.9-0.9,1.4-1.8,1.4-2.9c0-0.7-0.4-2.2-1.1-4.5l-4.9-15.1h4.4l3.5,11.3
		c0.8,2.6,1.1,4.4,1,5.4c1.9-5.1,3.2-10.7,4-16.7H89.4z"/>
	<polygon class="st0" points="148.5,132.1 135.9,132.1 135.9,105.6 140.1,105.6 140.1,128.8 148.5,128.8 	"/>
	<path class="st10" d="M132.6,132.7l-4.9-2.4c0.4-0.4,0.8-0.7,1.2-1.2c2.1-2.4,3.1-6,3.1-10.8c0-8.8-3.4-13.2-10.3-13.2
		c-3.4,0-6,1.1-7.9,3.3c-2.1,2.4-3.1,6-3.1,10.8c0,4.7,0.9,8.1,2.7,10.3c1.7,2,4.2,2.9,7.6,2.9c1.3,0,2.4-0.2,3.5-0.5l6.3,3.7
		L132.6,132.7z M116.8,126.8c-1.1-1.7-1.6-4.5-1.6-8.3c0-6.7,2-10,6.1-10c2.1,0,3.7,0.8,4.7,2.4c1.1,1.7,1.6,4.5,1.6,8.2
		c0,6.7-2,10.1-6.1,10.1C119.3,129.2,117.8,128.4,116.8,126.8"/>
	<path class="st0" d="M108.8,124.8c0,2.2-0.8,4.1-2.5,5.5c-1.6,1.4-3.9,2.2-6.6,2.2c-2.6,0-5.1-0.8-7.5-2.5l1.1-2.3
		c2.1,1,4,1.6,5.7,1.6c1.6,0,2.8-0.4,3.8-1.1c0.9-0.7,1.4-1.7,1.4-2.9c0-1.6-1.1-2.9-3.1-4c-1.9-1-5.6-3.2-5.6-3.2c-2-1.5-3-3-3-5.6
		c0-2.1,0.8-3.9,2.3-5.2c1.5-1.3,3.5-2,5.8-2c2.5,0,4.7,0.7,6.7,2l-1,2.3c-1.7-0.7-3.4-1.1-5.1-1.1c-1.4,0-2.4,0.3-3.1,1
		c-0.7,0.7-1.2,1.5-1.2,2.5c0,1.6,1.1,2.9,3.2,4.1c1.9,1,5.7,3.2,5.7,3.2C107.8,120.6,108.8,122.2,108.8,124.8"/>
	<path class="st10" d="M153.8,96.7c-2.6-0.1-4.5,0.2-6.2,0.9c-0.5,0.2-1.2,0.2-1.3,0.8c0.3,0.3,0.3,0.7,0.5,1c0.4,0.6,1.1,1.5,1.7,2
		c0.7,0.5,1.3,1,2.1,1.5c1.2,0.8,2.7,1.2,3.9,2c0.7,0.4,1.4,1,2.1,1.5c0.4,0.3,0.6,0.7,1,0.8v-0.1c-0.2-0.3-0.3-0.7-0.5-1
		c-0.3-0.3-0.6-0.6-1-0.9c-0.9-1.2-2.1-2.3-3.3-3.2c-1-0.7-3.3-1.7-3.7-2.8c0,0,0,0-0.1-0.1c0.7-0.1,1.5-0.3,2.2-0.5
		c1.1-0.3,2.1-0.2,3.2-0.5c0.5-0.1,1-0.3,1.5-0.4v-0.3c-0.6-0.6-1-1.3-1.6-1.9c-1.6-1.4-3.4-2.8-5.3-3.9c-1-0.6-2.3-1.1-3.3-1.6
		c-0.4-0.2-1-0.3-1.2-0.6c-0.6-0.7-0.9-1.6-1.3-2.5c-0.9-1.8-1.8-3.7-2.6-5.6c-0.6-1.2-0.9-2.5-1.6-3.7c-3.3-5.4-6.9-8.7-12.4-12
		c-1.2-0.7-2.6-1-4.1-1.3c-0.8,0-1.6-0.1-2.4-0.1c-0.5-0.2-1-0.8-1.5-1.1c-1.8-1.2-6.5-3.7-7.9-0.4c-0.9,2.1,1.3,4.1,2,5.2
		c0.5,0.7,1.2,1.6,1.6,2.4c0.2,0.5,0.3,1.1,0.5,1.7c0.5,1.4,1,3,1.7,4.3c0.4,0.7,0.7,1.4,1.2,2c0.3,0.4,0.7,0.5,0.8,1.1
		c-0.4,0.6-0.5,1.6-0.7,2.4c-1.2,3.6-0.7,8.1,0.9,10.8c0.5,0.8,1.7,2.6,3.4,1.9c1.4-0.6,1.1-2.4,1.5-4c0.1-0.4,0-0.6,0.2-0.9v0.1
		c0.4,0.9,0.9,1.8,1.3,2.7c1,1.6,2.7,3.2,4.2,4.3c0.8,0.6,1.4,1.6,2.3,1.9v-0.1h-0.1c-0.2-0.3-0.5-0.4-0.7-0.6
		c-0.6-0.6-1.2-1.3-1.7-1.9c-1.3-1.8-2.5-3.8-3.6-5.8c-0.5-1-1-2.1-1.4-3.1c-0.2-0.4-0.2-1-0.5-1.2c-0.5,0.7-1.2,1.3-1.5,2.2
		c-0.6,1.4-0.7,3.1-0.9,4.8c-0.1,0-0.1,0-0.1,0.1c-1-0.3-1.4-1.3-1.8-2.2c-1-2.3-1.1-5.9-0.3-8.6c0.2-0.7,1.2-2.8,0.8-3.4
		c-0.2-0.6-0.8-1-1.2-1.4c-0.4-0.6-0.9-1.4-1.2-2c-0.8-1.8-1.2-3.8-2-5.6c-0.4-0.8-1.1-1.7-1.6-2.5c-0.6-0.9-1.3-1.5-1.8-2.5
		c-0.2-0.4-0.4-0.9-0.1-1.3c0.1-0.3,0.2-0.4,0.4-0.4c0.4-0.4,1.6,0.1,2,0.3c1.2,0.5,2.2,0.9,3.2,1.6c0.4,0.3,0.9,0.9,1.5,1.1h0.7
		c1,0.2,2.2,0.1,3.1,0.4c1.7,0.5,3.2,1.3,4.6,2.2c4.2,2.7,7.7,6.4,10,11c0.4,0.7,0.5,1.4,0.9,2.2c0.7,1.6,1.5,3.2,2.2,4.7
		c0.7,1.5,1.3,3,2.3,4.3c0.5,0.7,2.4,1,3.3,1.4c0.6,0.3,1.6,0.5,2.2,0.9c1.1,0.7,2.2,1.4,3.2,2.2C152.1,95.3,153.7,96.1,153.8,96.7"
		/>
	<path class="st10" d="M121.1,68.9c-0.5,0-0.9,0.1-1.3,0.2v0.1h0.1c0.3,0.5,0.7,0.9,1,1.3c0.3,0.5,0.5,1,0.7,1.5
		c0,0,0.1-0.1,0.1-0.1c0.5-0.3,0.7-0.8,0.7-1.6c-0.2-0.2-0.2-0.4-0.4-0.7C121.8,69.3,121.4,69.1,121.1,68.9"/>
	<path class="st0" d="M156.8,132.1h0.7v-3.2h-1l-0.8,2.2l-0.9-2.2h-1v3.2h0.6v-2.5h0l0.9,2.5h0.5l0.9-2.5V132.1z M151.5,132.1h0.7
		v-2.7h0.9v-0.6h-2.6v0.6h1V132.1z"/>
</g>
</svg>
