<?xml version="1.0" encoding="utf-8"?>
<!-- Generator: Adobe Illustrator 19.1.0, SVG Export Plug-In . SVG Version: 6.00 Build 0)  -->
<svg version="1.1" id="Capa_1" xmlns="http://www.w3.org/2000/svg" xmlns:xlink="http://www.w3.org/1999/xlink" x="0px" y="0px"
	 viewBox="0 0 200 200" style="enable-background:new 0 0 200 200;" xml:space="preserve">
<style type="text/css">
	.st0{fill:#C6C6C6;}
	.st1{fill-rule:evenodd;clip-rule:evenodd;fill:#E2E2E2;}
	.st2{clip-path:url(#SVGID_2_);}
	.st3{clip-path:url(#SVGID_4_);fill:#C6C6C6;}
	.st4{fill:#FDFDFD;}
	.st5{fill:#FCFCFC;}
	.st6{fill:#E2E2E2;}
	.st7{fill:#FFFFFF;}
	.st8{fill:#EBEBEB;}
	.st9{fill:url(#SVGID_5_);}
</style>
<path class="st0" d="M100.9,141.1c-10.2,0-20.5,0.1-30.7,0c-10.9-0.1-16-5.7-14.9-16.4c1.4-13.9,3-27.9,4.4-41.8
	c0.3-3.3,1.4-6.3,4.1-8.4c0.9-0.7,1.5-1.6,1.8-2.7c2-7.3,5.5-10.2,13.2-10.3c14.7-0.1,29.4,0,44.2,0c0.7,0,1.4,0.1,2.1,0.2
	c6.2,0.8,9.5,3.8,11,9.9c0.2,0.9,0.2,2,1.1,2.7c4,2.9,4.4,7.2,4.9,11.6c1.5,13.5,3.1,27,4.6,40.5c0.8,7.6-2.9,12.7-10.3,14.4
	c-2.6,0.6-5.3,0.5-8,0.5C119.1,141.1,110,141.1,100.9,141.1z"/>
<path class="st4" d="M100.3,75.8c4.5-0.4,8.3,0.7,12,2.6c2.5,1.2,3.4,3,2.1,5.4c-1.3,2.4-3.5,2-5.4,0.7c-2.8-2-5.9-2.5-9.2-2.2
	c-1.7,0.2-3.6,0.7-3.9,2.6c-0.3,2.2,1.5,3,3.3,3.6c3.1,1,6.3,0.9,9.4,2c4.4,1.5,6.8,4.2,7.2,8.7c0.5,5-0.6,9.6-5.8,11.3
	c-7.7,2.6-15.6,3.1-22.7-2c-0.9-0.7-1.8-1.4-2.4-2.4c-1.3-1.9-1.4-4.2-0.1-5.9c1.4-1.7,3.5-1.3,5.3-0.1c2.3,1.5,4.6,3.1,7.4,3.8
	c1.7,0.4,3.4,0.6,5,0.1c1.8-0.6,3.9-1.3,4-3.7c0.1-2.4-2.1-2.9-3.7-3.4c-1.9-0.7-4.1-1-6.1-1.3c-7.4-0.9-9.6-3.3-9.4-10.6
	c0.2-5.6,3.8-8.9,10.2-9.3C98.7,75.7,99.7,75.8,100.3,75.8z"/>
<path class="st5" d="M140,119.2c2.4,6.8-3.1,14.4-12.3,14.3c-13.2,0-26.4,0-39.6,0c-5.2,0-10.4,0.2-15.6-0.1
	c-8.3-0.5-13.4-7.1-10.7-14.9c3.6,7.8,10.1,7.9,16.9,7.8c14.9-0.2,29.7,0,44.6,0C133.2,126.4,133.7,126.2,140,119.2z"/>
</svg>
