<?xml version="1.0" encoding="utf-8"?>
<!-- Generator: Adobe Illustrator 19.1.0, SVG Export Plug-In . SVG Version: 6.00 Build 0)  -->
<svg version="1.1" id="Capa_1" xmlns="http://www.w3.org/2000/svg" xmlns:xlink="http://www.w3.org/1999/xlink" x="0px" y="0px"
	 viewBox="0 0 200 200" style="enable-background:new 0 0 200 200;" xml:space="preserve">
<style type="text/css">
	.st0{fill:#C6C6C6;}
	.st1{fill-rule:evenodd;clip-rule:evenodd;fill:#E2E2E2;}
	.st2{clip-path:url(#SVGID_2_);}
	.st3{clip-path:url(#SVGID_4_);fill:#C6C6C6;}
	.st4{fill:#FDFDFD;}
	.st5{fill:#FCFCFC;}
	.st6{fill:#E2E2E2;}
	.st7{fill:#FFFFFF;}
	.st8{fill:#EBEBEB;}
	.st9{fill:url(#SVGID_5_);}
</style>
<g>
	<path class="st0" d="M100,57c-23.7,0-43,19.3-43,43c0,23.7,19.3,43,43,43c23.7,0,43-19.3,43-43C143,76.3,123.7,57,100,57z M100,59
		c22.6,0,41,18.4,41,41c0,22.6-18.4,41-41,41c-22.6,0-41-18.4-41-41C59,77.4,77.4,59,100,59z M100,63.2c-12.9,0-24.2,6.6-30.8,16.6
		c0.9,0,1.7,0.1,2.4,0.1c3.9,0,9.8-0.5,9.8-0.5c2-0.1,2.2,2.8,0.2,3c0,0-2,0.3-4.2,0.4l13.4,39.9l8.1-24.2l-5.7-15.7
		c-2-0.1-3.9-0.4-3.9-0.4c-2-0.1-1.7-3.2,0.2-3c0,0,6.1,0.5,9.7,0.5c3.9,0,9.8-0.5,9.8-0.5c2-0.1,2.2,2.8,0.2,3c0,0-2,0.3-4.2,0.4
		l13.3,39.6l3.7-12.3c1.6-5.1,2.8-8.7,2.8-11.9c0-4.6-1.6-7.7-3-10.2c-1.9-3-3.6-5.6-3.6-8.6c0-3.4,2.6-6.5,6.2-6.5
		c0.2,0,0.3,0,0.5,0C118.3,66.8,109.6,63.2,100,63.2z M132.3,82.3c0.2,1.2,0.3,2.5,0.3,3.8c0,3.7-0.7,7.9-2.8,13.2l-11.3,32.5
		c11-6.4,18.3-18.3,18.3-31.9C136.8,93.6,135.2,87.6,132.3,82.3z M66.3,85c-2,4.6-3.2,9.7-3.2,15c0,14.6,8.5,27.2,20.8,33.2L66.3,85
		z M100.6,103.2l-11.1,32.1c3.3,1,6.8,1.5,10.4,1.5c4.3,0,8.4-0.7,12.2-2.1c-0.1-0.2-0.2-0.3-0.3-0.5L100.6,103.2z"/>
</g>
</svg>
